0
SECTION
2
HEADER
9
$INSUNITS
70
4
9
$ACADVER
1
AC1014
9
$HANDSEED
5
FFFF
0
ENDSEC
0
SECTION
2
TABLES
0
TABLE
2
VPORT
5
8
100
AcDbSymbolTable
0
ENDTAB
0
TABLE
2
LTYPE
5
5
100
AcDbSymbolTable
0
LTYPE
5
14
100
AcDbSymbolTableRecord
100
AcDbLinetypeTableRecord
2
BYBLOCK
70
0
0
LTYPE
5
15
100
AcDbSymbolTableRecord
100
AcDbLinetypeTableRecord
2
BYLAYER
70
0
0
ENDTAB
0
TABLE
2
LAYER
5
2
100
AcDbSymbolTable
70
2
0
LAYER
5
50
100
AcDbSymbolTableRecord
100
AcDbLayerTableRecord
2
0
70
0
6
CONTINUOUS
0
ENDTAB
0
TABLE
2
STYLE
5
3
100
AcDbSymbolTable
70
1
0
STYLE
5
11
100
AcDbSymbolTableRecord
100
AcDbTextStyleTableRecord
2
STANDARD
70
0
0
ENDTAB
0
TABLE
2
VIEW
5
6
100
AcDbSymbolTable
70
0
0
ENDTAB
0
TABLE
2
UCS
5
7
100
AcDbSymbolTable
70
0
0
ENDTAB
0
TABLE
2
APPID
5
9
100
AcDbSymbolTable
70
2
0
APPID
5
12
100
AcDbSymbolTableRecord
100
AcDbRegAppTableRecord
2
ACAD
70
0
0
ENDTAB
0
TABLE
2
DIMSTYLE
5
A
100
AcDbSymbolTable
70
1
0
ENDTAB
0
TABLE
2
BLOCK_RECORD
5
1
100
AcDbSymbolTable
70
1
0
BLOCK_RECORD
5
1F
100
AcDbSymbolTableRecord
100
AcDbBlockTableRecord
2
*MODEL_SPACE
0
BLOCK_RECORD
5
1B
100
AcDbSymbolTableRecord
100
AcDbBlockTableRecord
2
*PAPER_SPACE
0
ENDTAB
0
ENDSEC
0
SECTION
2
BLOCKS
0
BLOCK
5
20
100
AcDbEntity
100
AcDbBlockBegin
2
*MODEL_SPACE
0
ENDBLK
5
21
100
AcDbEntity
100
AcDbBlockEnd
0
BLOCK
5
1C
100
AcDbEntity
100
AcDbBlockBegin
2
*PAPER_SPACE
0
ENDBLK
5
1D
100
AcDbEntity
100
AcDbBlockEnd
0
ENDSEC
0
SECTION
2
ENTITIES
0
LWPOLYLINE
5
100
100
AcDbEntity
8
0
100
AcDbPolyline
90
4
70
1
43
0.0
10
205
20
-179.99999999999997
10
-159.99999999999997
20
-179.99999999999997
10
-160
20
185.00000000000003
10
205
20
185.00000000000003
0
LWPOLYLINE
5
101
100
AcDbEntity
8
0
100
AcDbPolyline
90
4
70
1
43
0.0
10
-154.99999999999997
20
180.00000000000003
10
-114.99999999999997
20
180.00000000000003
10
-114.99999999999997
20
140.00000000000003
10
-154.99999999999997
20
140.00000000000003
0
LINE
5
102
100
AcDbEntity
8
0
100
AcDbLine
10
-114.99999999999997
20
180.00000000000003
30
0
11
-114.99999999999997
21
140.00000000000003
31
0
0
LINE
5
103
100
AcDbEntity
8
0
100
AcDbLine
10
-154.99999999999997
20
140.00000000000003
30
0
11
-154.99999999999997
21
180.00000000000003
31
0
0
LINE
5
104
100
AcDbEntity
8
0
100
AcDbLine
10
-114.99999999999997
20
140.00000000000003
30
0
11
-154.99999999999997
21
140.00000000000003
31
0
0
LINE
5
105
100
AcDbEntity
8
0
100
AcDbLine
10
-109.99999999999997
20
180.00000000000003
30
0
11
-69.999999999999972
21
180.00000000000003
31
0
0
LINE
5
106
100
AcDbEntity
8
0
100
AcDbLine
10
-69.999999999999972
20
180.00000000000003
30
0
11
-69.999999999999972
21
140.00000000000003
31
0
0
LINE
5
107
100
AcDbEntity
8
0
100
AcDbLine
10
-69.999999999999972
20
140.00000000000003
30
0
11
-109.99999999999997
21
140.00000000000003
31
0
0
LINE
5
108
100
AcDbEntity
8
0
100
AcDbLine
10
-109.99999999999997
20
140.00000000000003
30
0
11
-109.99999999999997
21
180.00000000000003
31
0
0
LINE
5
109
100
AcDbEntity
8
0
100
AcDbLine
10
-19.999999999999964
20
140.00000000000003
30
0
11
-19.999999999999964
21
180.00000000000003
31
0
0
LWPOLYLINE
5
110
100
AcDbEntity
8
0
100
AcDbPolyline
90
4
70
1
43
0.0
10
-24.999999999999964
20
140.00000000000003
10
-64.999999999999972
20
140.00000000000003
10
-64.999999999999972
20
180.00000000000003
10
-24.999999999999964
20
180.00000000000003
0
LINE
5
111
100
AcDbEntity
8
0
100
AcDbLine
10
-64.999999999999972
20
140.00000000000003
30
0
11
-64.999999999999972
21
180.00000000000003
31
0
0
LINE
5
112
100
AcDbEntity
8
0
100
AcDbLine
10
-24.999999999999964
20
180.00000000000003
30
0
11
-24.999999999999964
21
140.00000000000003
31
0
0
LINE
5
113
100
AcDbEntity
8
0
100
AcDbLine
10
20.000000000000036
20
140.00000000000003
30
0
11
-19.999999999999964
21
140.00000000000003
31
0
0
LINE
5
114
100
AcDbEntity
8
0
100
AcDbLine
10
-24.999999999999964
20
140.00000000000003
30
0
11
-64.999999999999972
21
140.00000000000003
31
0
0
LINE
5
115
100
AcDbEntity
8
0
100
AcDbLine
10
-19.999999999999964
20
180.00000000000003
30
0
11
20.000000000000036
21
180.00000000000003
31
0
0
LINE
5
116
100
AcDbEntity
8
0
100
AcDbLine
10
20.000000000000036
20
180.00000000000003
30
0
11
20.000000000000036
21
140.00000000000003
31
0
0
LWPOLYLINE
5
117
100
AcDbEntity
8
0
100
AcDbPolyline
90
4
70
1
43
0.0
10
25.000000000000036
20
140.00000000000003
10
25.000000000000036
20
180.00000000000003
10
65.000000000000028
20
180.00000000000003
10
65.000000000000028
20
140.00000000000003
0
LINE
5
118
100
AcDbEntity
8
0
100
AcDbLine
10
110.00000000000003
20
140.00000000000003
30
0
11
70.000000000000028
21
140.00000000000003
31
0
0
LINE
5
119
100
AcDbEntity
8
0
100
AcDbLine
10
160.00000000000003
20
180.00000000000003
30
0
11
200.00000000000003
21
180.00000000000003
31
0
0
LWPOLYLINE
5
120
100
AcDbEntity
8
0
100
AcDbPolyline
90
4
70
1
43
0.0
10
155.00000000000003
20
140.00000000000003
10
115.00000000000003
20
140.00000000000003
10
115.00000000000003
20
180.00000000000003
10
155.00000000000003
20
180.00000000000003
0
LINE
5
121
100
AcDbEntity
8
0
100
AcDbLine
10
65.000000000000028
20
180.00000000000003
30
0
11
65.000000000000028
21
140.00000000000003
31
0
0
LINE
5
122
100
AcDbEntity
8
0
100
AcDbLine
10
200.00000000000003
20
180.00000000000003
30
0
11
200.00000000000003
21
140.00000000000003
31
0
0
LINE
5
123
100
AcDbEntity
8
0
100
AcDbLine
10
65.000000000000028
20
140.00000000000003
30
0
11
25.000000000000036
21
140.00000000000003
31
0
0
LINE
5
124
100
AcDbEntity
8
0
100
AcDbLine
10
160.00000000000003
20
140.00000000000003
30
0
11
160.00000000000003
21
180.00000000000003
31
0
0
LINE
5
125
100
AcDbEntity
8
0
100
AcDbLine
10
155.00000000000003
20
180.00000000000003
30
0
11
155.00000000000003
21
140.00000000000003
31
0
0
LINE
5
126
100
AcDbEntity
8
0
100
AcDbLine
10
70.000000000000028
20
140.00000000000003
30
0
11
70.000000000000028
21
180.00000000000003
31
0
0
LINE
5
127
100
AcDbEntity
8
0
100
AcDbLine
10
200.00000000000003
20
140.00000000000003
30
0
11
160.00000000000003
21
140.00000000000003
31
0
0
LINE
5
128
100
AcDbEntity
8
0
100
AcDbLine
10
155.00000000000003
20
140.00000000000003
30
0
11
115.00000000000003
21
140.00000000000003
31
0
0
LINE
5
129
100
AcDbEntity
8
0
100
AcDbLine
10
110.00000000000003
20
180.00000000000003
30
0
11
110.00000000000003
21
140.00000000000003
31
0
0
LINE
5
130
100
AcDbEntity
8
0
100
AcDbLine
10
25.000000000000036
20
140.00000000000003
30
0
11
25.000000000000036
21
180.00000000000003
31
0
0
LINE
5
131
100
AcDbEntity
8
0
100
AcDbLine
10
70.000000000000028
20
180.00000000000003
30
0
11
110.00000000000003
21
180.00000000000003
31
0
0
LINE
5
132
100
AcDbEntity
8
0
100
AcDbLine
10
115.00000000000003
20
140.00000000000003
30
0
11
115.00000000000003
21
180.00000000000003
31
0
0
LWPOLYLINE
5
133
100
AcDbEntity
8
0
100
AcDbPolyline
90
4
70
1
43
0.0
10
-114.99999999999997
20
135.00000000000003
10
-114.99999999999997
20
95.000000000000028
10
-154.99999999999997
20
95.000000000000028
10
-154.99999999999997
20
135.00000000000003
0
LINE
5
134
100
AcDbEntity
8
0
100
AcDbLine
10
-69.999999999999972
20
95.000000000000028
30
0
11
-109.99999999999997
21
95.000000000000028
31
0
0
LINE
5
135
100
AcDbEntity
8
0
100
AcDbLine
10
-19.999999999999964
20
135.00000000000003
30
0
11
20.000000000000036
21
135.00000000000003
31
0
0
LINE
5
136
100
AcDbEntity
8
0
100
AcDbLine
10
-109.99999999999997
20
95.000000000000028
30
0
11
-109.99999999999997
21
135.00000000000003
31
0
0
LWPOLYLINE
5
137
100
AcDbEntity
8
0
100
AcDbPolyline
90
4
70
1
43
0.0
10
115.00000000000003
20
135.00000000000003
10
155.00000000000003
20
135.00000000000003
10
155.00000000000003
20
95.000000000000028
10
115.00000000000003
20
95.000000000000028
0
LINE
5
138
100
AcDbEntity
8
0
100
AcDbLine
10
70.000000000000028
20
135.00000000000003
30
0
11
110.00000000000003
21
135.00000000000003
31
0
0
LINE
5
139
100
AcDbEntity
8
0
100
AcDbLine
10
160.00000000000003
20
135.00000000000003
30
0
11
200.00000000000003
21
135.00000000000003
31
0
0
LINE
5
140
100
AcDbEntity
8
0
100
AcDbLine
10
-109.99999999999997
20
135.00000000000003
30
0
11
-69.999999999999972
21
135.00000000000003
31
0
0
LWPOLYLINE
5
141
100
AcDbEntity
8
0
100
AcDbPolyline
90
4
70
1
43
0.0
10
-64.999999999999972
20
135.00000000000003
10
-24.999999999999964
20
135.00000000000003
10
-24.999999999999964
20
95.000000000000028
10
-64.999999999999972
20
95.000000000000028
0
LINE
5
142
100
AcDbEntity
8
0
100
AcDbLine
10
110.00000000000003
20
95.000000000000028
30
0
11
70.000000000000028
21
95.000000000000028
31
0
0
LINE
5
143
100
AcDbEntity
8
0
100
AcDbLine
10
155.00000000000003
20
135.00000000000003
30
0
11
155.00000000000003
21
95.000000000000028
31
0
0
LINE
5
144
100
AcDbEntity
8
0
100
AcDbLine
10
110.00000000000003
20
135.00000000000003
30
0
11
110.00000000000003
21
95.000000000000028
31
0
0
LINE
5
145
100
AcDbEntity
8
0
100
AcDbLine
10
160.00000000000003
20
95.000000000000028
30
0
11
160.00000000000003
21
135.00000000000003
31
0
0
LINE
5
146
100
AcDbEntity
8
0
100
AcDbLine
10
20.000000000000036
20
135.00000000000003
30
0
11
20.000000000000036
21
95.000000000000028
31
0
0
LINE
5
147
100
AcDbEntity
8
0
100
AcDbLine
10
25.000000000000036
20
95.000000000000028
30
0
11
25.000000000000036
21
135.00000000000003
31
0
0
LINE
5
148
100
AcDbEntity
8
0
100
AcDbLine
10
-19.999999999999964
20
95.000000000000028
30
0
11
-19.999999999999964
21
135.00000000000003
31
0
0
LINE
5
149
100
AcDbEntity
8
0
100
AcDbLine
10
-114.99999999999997
20
95.000000000000028
30
0
11
-154.99999999999997
21
95.000000000000028
31
0
0
LWPOLYLINE
5
150
100
AcDbEntity
8
0
100
AcDbPolyline
90
4
70
1
43
0.0
10
25.000000000000036
20
95.000000000000028
10
25.000000000000036
20
135.00000000000003
10
65.000000000000028
20
135.00000000000003
10
65.000000000000028
20
95.000000000000028
0
LINE
5
151
100
AcDbEntity
8
0
100
AcDbLine
10
-69.999999999999972
20
135.00000000000003
30
0
11
-69.999999999999972
21
95.000000000000028
31
0
0
LINE
5
152
100
AcDbEntity
8
0
100
AcDbLine
10
-64.999999999999972
20
95.000000000000028
30
0
11
-64.999999999999972
21
135.00000000000003
31
0
0
LINE
5
153
100
AcDbEntity
8
0
100
AcDbLine
10
-24.999999999999964
20
135.00000000000003
30
0
11
-24.999999999999964
21
95.000000000000028
31
0
0
LINE
5
154
100
AcDbEntity
8
0
100
AcDbLine
10
70.000000000000028
20
95.000000000000028
30
0
11
70.000000000000028
21
135.00000000000003
31
0
0
LINE
5
155
100
AcDbEntity
8
0
100
AcDbLine
10
65.000000000000028
20
95.000000000000028
30
0
11
25.000000000000036
21
95.000000000000028
31
0
0
LINE
5
156
100
AcDbEntity
8
0
100
AcDbLine
10
155.00000000000003
20
95.000000000000028
30
0
11
115.00000000000003
21
95.000000000000028
31
0
0
LINE
5
157
100
AcDbEntity
8
0
100
AcDbLine
10
65.000000000000028
20
135.00000000000003
30
0
11
65.000000000000028
21
95.000000000000028
31
0
0
LINE
5
158
100
AcDbEntity
8
0
100
AcDbLine
10
-114.99999999999997
20
135.00000000000003
30
0
11
-114.99999999999997
21
95.000000000000028
31
0
0
LINE
5
159
100
AcDbEntity
8
0
100
AcDbLine
10
20.000000000000036
20
95.000000000000028
30
0
11
-19.999999999999964
21
95.000000000000028
31
0
0
LINE
5
160
100
AcDbEntity
8
0
100
AcDbLine
10
-24.999999999999964
20
95.000000000000028
30
0
11
-64.999999999999972
21
95.000000000000028
31
0
0
LINE
5
161
100
AcDbEntity
8
0
100
AcDbLine
10
200.00000000000003
20
135.00000000000003
30
0
11
200.00000000000003
21
95.000000000000028
31
0
0
LINE
5
162
100
AcDbEntity
8
0
100
AcDbLine
10
115.00000000000003
20
95.000000000000028
30
0
11
115.00000000000003
21
135.00000000000003
31
0
0
LINE
5
163
100
AcDbEntity
8
0
100
AcDbLine
10
200.00000000000003
20
95.000000000000028
30
0
11
160.00000000000003
21
95.000000000000028
31
0
0
LINE
5
164
100
AcDbEntity
8
0
100
AcDbLine
10
-154.99999999999997
20
95.000000000000028
30
0
11
-154.99999999999997
21
135.00000000000003
31
0
0
LWPOLYLINE
5
165
100
AcDbEntity
8
0
100
AcDbPolyline
90
4
70
1
43
0.0
10
-114.99999999999997
20
50.000000000000036
10
-154.99999999999997
20
50.000000000000036
10
-154.99999999999997
20
90.000000000000028
10
-114.99999999999997
20
90.000000000000028
0
LINE
5
166
100
AcDbEntity
8
0
100
AcDbLine
10
20.000000000000036
20
50.000000000000036
30
0
11
-19.999999999999964
21
50.000000000000036
31
0
0
LINE
5
167
100
AcDbEntity
8
0
100
AcDbLine
10
65.000000000000028
20
5.0000000000000355
30
0
11
25.000000000000036
21
5.0000000000000355
31
0
0
LWPOLYLINE
5
168
100
AcDbEntity
8
0
100
AcDbPolyline
90
4
70
1
43
0.0
10
25.000000000000036
20
45.000000000000036
10
65.000000000000028
20
45.000000000000036
10
65.000000000000028
20
5.0000000000000355
10
25.000000000000036
20
5.0000000000000355
0
LWPOLYLINE
5
169
100
AcDbEntity
8
0
100
AcDbPolyline
90
4
70
1
43
0.0
10
25.000000000000036
20
50.000000000000036
10
25.000000000000036
20
90.000000000000028
10
65.000000000000028
20
90.000000000000028
10
65.000000000000028
20
50.000000000000036
0
LINE
5
170
100
AcDbEntity
8
0
100
AcDbLine
10
110.00000000000003
20
45.000000000000036
30
0
11
110.00000000000003
21
5.0000000000000355
31
0
0
LWPOLYLINE
5
171
100
AcDbEntity
8
0
100
AcDbPolyline
90
4
70
1
43
0.0
10
155.00000000000003
20
45.000000000000036
10
155.00000000000003
20
5.0000000000000355
10
115.00000000000003
20
5.0000000000000355
10
115.00000000000003
20
45.000000000000036
0
LINE
5
172
100
AcDbEntity
8
0
100
AcDbLine
10
160.00000000000003
20
45.000000000000036
30
0
11
200.00000000000003
21
45.000000000000036
31
0
0
LINE
5
173
100
AcDbEntity
8
0
100
AcDbLine
10
200.00000000000003
20
45.000000000000036
30
0
11
200.00000000000003
21
5.0000000000000355
31
0
0
LINE
5
174
100
AcDbEntity
8
0
100
AcDbLine
10
155.00000000000003
20
5.0000000000000355
30
0
11
115.00000000000003
21
5.0000000000000355
31
0
0
LINE
5
175
100
AcDbEntity
8
0
100
AcDbLine
10
155.00000000000003
20
45.000000000000036
30
0
11
155.00000000000003
21
5.0000000000000355
31
0
0
LINE
5
176
100
AcDbEntity
8
0
100
AcDbLine
10
70.000000000000028
20
45.000000000000036
30
0
11
110.00000000000003
21
45.000000000000036
31
0
0
LINE
5
177
100
AcDbEntity
8
0
100
AcDbLine
10
160.00000000000003
20
50.000000000000036
30
0
11
160.00000000000003
21
90.000000000000028
31
0
0
LINE
5
178
100
AcDbEntity
8
0
100
AcDbLine
10
65.000000000000028
20
45.000000000000036
30
0
11
65.000000000000028
21
5.0000000000000355
31
0
0
LINE
5
179
100
AcDbEntity
8
0
100
AcDbLine
10
70.000000000000028
20
5.0000000000000355
30
0
11
70.000000000000028
21
45.000000000000036
31
0
0
LINE
5
180
100
AcDbEntity
8
0
100
AcDbLine
10
110.00000000000003
20
5.0000000000000355
30
0
11
70.000000000000028
21
5.0000000000000355
31
0
0
LINE
5
181
100
AcDbEntity
8
0
100
AcDbLine
10
200.00000000000003
20
5.0000000000000355
30
0
11
160.00000000000003
21
5.0000000000000355
31
0
0
LINE
5
182
100
AcDbEntity
8
0
100
AcDbLine
10
70.000000000000028
20
50.000000000000036
30
0
11
70.000000000000028
21
90.000000000000028
31
0
0
LWPOLYLINE
5
183
100
AcDbEntity
8
0
100
AcDbPolyline
90
4
70
1
43
0.0
10
-64.999999999999972
20
5.0000000000000355
10
-64.999999999999972
20
45.000000000000036
10
-24.999999999999964
20
45.000000000000036
10
-24.999999999999964
20
5.0000000000000355
0
LINE
5
184
100
AcDbEntity
8
0
100
AcDbLine
10
-114.99999999999997
20
50.000000000000036
30
0
11
-154.99999999999997
21
50.000000000000036
31
0
0
LINE
5
185
100
AcDbEntity
8
0
100
AcDbLine
10
-69.999999999999972
20
45.000000000000036
30
0
11
-69.999999999999972
21
5.0000000000000355
31
0
0
LINE
5
186
100
AcDbEntity
8
0
100
AcDbLine
10
-109.99999999999997
20
45.000000000000036
30
0
11
-69.999999999999972
21
45.000000000000036
31
0
0
LINE
5
187
100
AcDbEntity
8
0
100
AcDbLine
10
-154.99999999999997
20
5.0000000000000355
30
0
11
-154.99999999999997
21
45.000000000000036
31
0
0
LINE
5
188
100
AcDbEntity
8
0
100
AcDbLine
10
-109.99999999999997
20
50.000000000000036
30
0
11
-109.99999999999997
21
90.000000000000028
31
0
0
LINE
5
189
100
AcDbEntity
8
0
100
AcDbLine
10
20.000000000000036
20
5.0000000000000355
30
0
11
-19.999999999999964
21
5.0000000000000355
31
0
0
LWPOLYLINE
5
190
100
AcDbEntity
8
0
100
AcDbPolyline
90
4
70
1
43
0.0
10
-24.999999999999964
20
90.000000000000028
10
-24.999999999999964
20
50.000000000000036
10
-64.999999999999972
20
50.000000000000036
10
-64.999999999999972
20
90.000000000000028
0
LINE
5
191
100
AcDbEntity
8
0
100
AcDbLine
10
65.000000000000028
20
90.000000000000028
30
0
11
65.000000000000028
21
50.000000000000036
31
0
0
LINE
5
192
100
AcDbEntity
8
0
100
AcDbLine
10
-154.99999999999997
20
50.000000000000036
30
0
11
-154.99999999999997
21
90.000000000000028
31
0
0
LINE
5
193
100
AcDbEntity
8
0
100
AcDbLine
10
-114.99999999999997
20
5.0000000000000355
30
0
11
-154.99999999999997
21
5.0000000000000355
31
0
0
LWPOLYLINE
5
194
100
AcDbEntity
8
0
100
AcDbPolyline
90
4
70
1
43
0.0
10
-154.99999999999997
20
45.000000000000036
10
-114.99999999999997
20
45.000000000000036
10
-114.99999999999997
20
5.0000000000000355
10
-154.99999999999997
20
5.0000000000000355
0
LWPOLYLINE
5
195
100
AcDbEntity
8
0
100
AcDbPolyline
90
4
70
1
43
0.0
10
155.00000000000003
20
50.000000000000036
10
115.00000000000003
20
50.000000000000036
10
115.00000000000003
20
90.000000000000028
10
155.00000000000003
20
90.000000000000028
0
LINE
5
196
100
AcDbEntity
8
0
100
AcDbLine
10
-19.999999999999964
20
45.000000000000036
30
0
11
20.000000000000036
21
45.000000000000036
31
0
0
LINE
5
197
100
AcDbEntity
8
0
100
AcDbLine
10
-19.999999999999964
20
5.0000000000000355
30
0
11
-19.999999999999964
21
45.000000000000036
31
0
0
LINE
5
198
100
AcDbEntity
8
0
100
AcDbLine
10
-64.999999999999972
20
50.000000000000036
30
0
11
-64.999999999999972
21
90.000000000000028
31
0
0
LINE
5
199
100
AcDbEntity
8
0
100
AcDbLine
10
-24.999999999999964
20
5.0000000000000355
30
0
11
-64.999999999999972
21
5.0000000000000355
31
0
0
LINE
5
200
100
AcDbEntity
8
0
100
AcDbLine
10
115.00000000000003
20
50.000000000000036
30
0
11
115.00000000000003
21
90.000000000000028
31
0
0
LINE
5
201
100
AcDbEntity
8
0
100
AcDbLine
10
-114.99999999999997
20
45.000000000000036
30
0
11
-114.99999999999997
21
5.0000000000000355
31
0
0
LINE
5
202
100
AcDbEntity
8
0
100
AcDbLine
10
-109.99999999999997
20
90.000000000000028
30
0
11
-69.999999999999972
21
90.000000000000028
31
0
0
LINE
5
203
100
AcDbEntity
8
0
100
AcDbLine
10
70.000000000000028
20
90.000000000000028
30
0
11
110.00000000000003
21
90.000000000000028
31
0
0
LINE
5
204
100
AcDbEntity
8
0
100
AcDbLine
10
160.00000000000003
20
90.000000000000028
30
0
11
200.00000000000003
21
90.000000000000028
31
0
0
LINE
5
205
100
AcDbEntity
8
0
100
AcDbLine
10
155.00000000000003
20
50.000000000000036
30
0
11
115.00000000000003
21
50.000000000000036
31
0
0
LINE
5
206
100
AcDbEntity
8
0
100
AcDbLine
10
155.00000000000003
20
90.000000000000028
30
0
11
155.00000000000003
21
50.000000000000036
31
0
0
LINE
5
207
100
AcDbEntity
8
0
100
AcDbLine
10
-109.99999999999997
20
5.0000000000000355
30
0
11
-109.99999999999997
21
45.000000000000036
31
0
0
LINE
5
208
100
AcDbEntity
8
0
100
AcDbLine
10
110.00000000000003
20
90.000000000000028
30
0
11
110.00000000000003
21
50.000000000000036
31
0
0
LINE
5
209
100
AcDbEntity
8
0
100
AcDbLine
10
-69.999999999999972
20
5.0000000000000355
30
0
11
-109.99999999999997
21
5.0000000000000355
31
0
0
LINE
5
210
100
AcDbEntity
8
0
100
AcDbLine
10
110.00000000000003
20
50.000000000000036
30
0
11
70.000000000000028
21
50.000000000000036
31
0
0
LINE
5
211
100
AcDbEntity
8
0
100
AcDbLine
10
-69.999999999999972
20
50.000000000000036
30
0
11
-109.99999999999997
21
50.000000000000036
31
0
0
LINE
5
212
100
AcDbEntity
8
0
100
AcDbLine
10
-19.999999999999964
20
90.000000000000028
30
0
11
20.000000000000036
21
90.000000000000028
31
0
0
LINE
5
213
100
AcDbEntity
8
0
100
AcDbLine
10
20.000000000000036
20
45.000000000000036
30
0
11
20.000000000000036
21
5.0000000000000355
31
0
0
LINE
5
214
100
AcDbEntity
8
0
100
AcDbLine
10
115.00000000000003
20
5.0000000000000355
30
0
11
115.00000000000003
21
45.000000000000036
31
0
0
LINE
5
215
100
AcDbEntity
8
0
100
AcDbLine
10
25.000000000000036
20
5.0000000000000355
30
0
11
25.000000000000036
21
45.000000000000036
31
0
0
LINE
5
216
100
AcDbEntity
8
0
100
AcDbLine
10
20.000000000000036
20
90.000000000000028
30
0
11
20.000000000000036
21
50.000000000000036
31
0
0
LINE
5
217
100
AcDbEntity
8
0
100
AcDbLine
10
160.00000000000003
20
5.0000000000000355
30
0
11
160.00000000000003
21
45.000000000000036
31
0
0
LINE
5
218
100
AcDbEntity
8
0
100
AcDbLine
10
-24.999999999999964
20
50.000000000000036
30
0
11
-64.999999999999972
21
50.000000000000036
31
0
0
LINE
5
219
100
AcDbEntity
8
0
100
AcDbLine
10
65.000000000000028
20
50.000000000000036
30
0
11
25.000000000000036
21
50.000000000000036
31
0
0
LINE
5
220
100
AcDbEntity
8
0
100
AcDbLine
10
-24.999999999999964
20
45.000000000000036
30
0
11
-24.999999999999964
21
5.0000000000000355
31
0
0
LINE
5
221
100
AcDbEntity
8
0
100
AcDbLine
10
-114.99999999999997
20
90.000000000000028
30
0
11
-114.99999999999997
21
50.000000000000036
31
0
0
LINE
5
222
100
AcDbEntity
8
0
100
AcDbLine
10
-69.999999999999972
20
90.000000000000028
30
0
11
-69.999999999999972
21
50.000000000000036
31
0
0
LINE
5
223
100
AcDbEntity
8
0
100
AcDbLine
10
-19.999999999999964
20
50.000000000000036
30
0
11
-19.999999999999964
21
90.000000000000028
31
0
0
LINE
5
224
100
AcDbEntity
8
0
100
AcDbLine
10
-64.999999999999972
20
5.0000000000000355
30
0
11
-64.999999999999972
21
45.000000000000036
31
0
0
LINE
5
225
100
AcDbEntity
8
0
100
AcDbLine
10
-24.999999999999964
20
90.000000000000028
30
0
11
-24.999999999999964
21
50.000000000000036
31
0
0
LINE
5
226
100
AcDbEntity
8
0
100
AcDbLine
10
200.00000000000003
20
90.000000000000028
30
0
11
200.00000000000003
21
50.000000000000036
31
0
0
LINE
5
227
100
AcDbEntity
8
0
100
AcDbLine
10
200.00000000000003
20
50.000000000000036
30
0
11
160.00000000000003
21
50.000000000000036
31
0
0
LINE
5
228
100
AcDbEntity
8
0
100
AcDbLine
10
25.000000000000036
20
50.000000000000036
30
0
11
25.000000000000036
21
90.000000000000028
31
0
0
LINE
5
229
100
AcDbEntity
8
0
100
AcDbLine
10
155.00000000000003
20
-134.99999999999997
30
0
11
155.00000000000003
21
-174.99999999999997
31
0
0
LINE
5
230
100
AcDbEntity
8
0
100
AcDbLine
10
110.00000000000003
20
-134.99999999999997
30
0
11
110.00000000000003
21
-174.99999999999997
31
0
0
LINE
5
231
100
AcDbEntity
8
0
100
AcDbLine
10
155.00000000000003
20
-129.99999999999997
30
0
11
115.00000000000003
21
-129.99999999999997
31
0
0
LINE
5
232
100
AcDbEntity
8
0
100
AcDbLine
10
115.00000000000003
20
-174.99999999999997
30
0
11
115.00000000000003
21
-134.99999999999997
31
0
0
LWPOLYLINE
5
233
100
AcDbEntity
8
0
100
AcDbPolyline
90
4
70
1
43
0.0
10
155.00000000000003
20
-89.999999999999972
10
155.00000000000003
20
-129.99999999999997
10
115.00000000000003
20
-129.99999999999997
10
115.00000000000003
20
-89.999999999999972
0
LINE
5
234
100
AcDbEntity
8
0
100
AcDbLine
10
155.00000000000003
20
-174.99999999999997
30
0
11
115.00000000000003
21
-174.99999999999997
31
0
0
LINE
5
235
100
AcDbEntity
8
0
100
AcDbLine
10
160.00000000000003
20
-134.99999999999997
30
0
11
200.00000000000003
21
-134.99999999999997
31
0
0
LINE
5
236
100
AcDbEntity
8
0
100
AcDbLine
10
160.00000000000003
20
-174.99999999999997
30
0
11
160.00000000000003
21
-134.99999999999997
31
0
0
LINE
5
237
100
AcDbEntity
8
0
100
AcDbLine
10
20.000000000000036
20
-134.99999999999997
30
0
11
20.000000000000036
21
-174.99999999999997
31
0
0
LINE
5
238
100
AcDbEntity
8
0
100
AcDbLine
10
65.000000000000028
20
-134.99999999999997
30
0
11
65.000000000000028
21
-174.99999999999997
31
0
0
LWPOLYLINE
5
239
100
AcDbEntity
8
0
100
AcDbPolyline
90
4
70
1
43
0.0
10
25.000000000000036
20
-89.999999999999972
10
65.000000000000028
20
-89.999999999999972
10
65.000000000000028
20
-129.99999999999997
10
25.000000000000036
20
-129.99999999999997
0
LWPOLYLINE
5
240
100
AcDbEntity
8
0
100
AcDbPolyline
90
4
70
1
43
0.0
10
25.000000000000036
20
-174.99999999999997
10
25.000000000000036
20
-134.99999999999997
10
65.000000000000028
20
-134.99999999999997
10
65.000000000000028
20
-174.99999999999997
0
LINE
5
241
100
AcDbEntity
8
0
100
AcDbLine
10
65.000000000000028
20
-129.99999999999997
30
0
11
25.000000000000036
21
-129.99999999999997
31
0
0
LINE
5
242
100
AcDbEntity
8
0
100
AcDbLine
10
25.000000000000036
20
-174.99999999999997
30
0
11
25.000000000000036
21
-134.99999999999997
31
0
0
LINE
5
243
100
AcDbEntity
8
0
100
AcDbLine
10
65.000000000000028
20
-174.99999999999997
30
0
11
25.000000000000036
21
-174.99999999999997
31
0
0
LINE
5
244
100
AcDbEntity
8
0
100
AcDbLine
10
20.000000000000036
20
-89.999999999999972
30
0
11
20.000000000000036
21
-129.99999999999997
31
0
0
LINE
5
245
100
AcDbEntity
8
0
100
AcDbLine
10
70.000000000000028
20
-129.99999999999997
30
0
11
70.000000000000028
21
-89.999999999999972
31
0
0
LINE
5
246
100
AcDbEntity
8
0
100
AcDbLine
10
70.000000000000028
20
-174.99999999999997
30
0
11
70.000000000000028
21
-134.99999999999997
31
0
0
LINE
5
247
100
AcDbEntity
8
0
100
AcDbLine
10
25.000000000000036
20
-129.99999999999997
30
0
11
25.000000000000036
21
-89.999999999999972
31
0
0
LINE
5
248
100
AcDbEntity
8
0
100
AcDbLine
10
65.000000000000028
20
-89.999999999999972
30
0
11
65.000000000000028
21
-129.99999999999997
31
0
0
LWPOLYLINE
5
249
100
AcDbEntity
8
0
100
AcDbPolyline
90
4
70
1
43
0.0
10
65.000000000000028
20
-44.999999999999964
10
65.000000000000028
20
-84.999999999999972
10
25.000000000000036
20
-84.999999999999972
10
25.000000000000036
20
-44.999999999999964
0
LINE
5
250
100
AcDbEntity
8
0
100
AcDbLine
10
65.000000000000028
20
-84.999999999999972
30
0
11
25.000000000000036
21
-84.999999999999972
31
0
0
LINE
5
251
100
AcDbEntity
8
0
100
AcDbLine
10
25.000000000000036
20
-84.999999999999972
30
0
11
25.000000000000036
21
-44.999999999999964
31
0
0
LINE
5
252
100
AcDbEntity
8
0
100
AcDbLine
10
110.00000000000003
20
-84.999999999999972
30
0
11
70.000000000000028
21
-84.999999999999972
31
0
0
LINE
5
253
100
AcDbEntity
8
0
100
AcDbLine
10
70.000000000000028
20
-44.999999999999964
30
0
11
110.00000000000003
21
-44.999999999999964
31
0
0
LINE
5
254
100
AcDbEntity
8
0
100
AcDbLine
10
65.000000000000028
20
-44.999999999999964
30
0
11
65.000000000000028
21
-84.999999999999972
31
0
0
LINE
5
255
100
AcDbEntity
8
0
100
AcDbLine
10
20.000000000000036
20
-44.999999999999964
30
0
11
20.000000000000036
21
-84.999999999999972
31
0
0
LINE
5
256
100
AcDbEntity
8
0
100
AcDbLine
10
70.000000000000028
20
-84.999999999999972
30
0
11
70.000000000000028
21
-44.999999999999964
31
0
0
LINE
5
257
100
AcDbEntity
8
0
100
AcDbLine
10
65.000000000000028
20
-39.999999999999964
30
0
11
25.000000000000036
21
-39.999999999999964
31
0
0
LINE
5
258
100
AcDbEntity
8
0
100
AcDbLine
10
160.00000000000003
20
-129.99999999999997
30
0
11
160.00000000000003
21
-89.999999999999972
31
0
0
LINE
5
259
100
AcDbEntity
8
0
100
AcDbLine
10
200.00000000000003
20
-134.99999999999997
30
0
11
200.00000000000003
21
-174.99999999999997
31
0
0
LINE
5
260
100
AcDbEntity
8
0
100
AcDbLine
10
160.00000000000003
20
-89.999999999999972
30
0
11
200.00000000000003
21
-89.999999999999972
31
0
0
LINE
5
261
100
AcDbEntity
8
0
100
AcDbLine
10
110.00000000000003
20
-89.999999999999972
30
0
11
110.00000000000003
21
-129.99999999999997
31
0
0
LINE
5
262
100
AcDbEntity
8
0
100
AcDbLine
10
115.00000000000003
20
-129.99999999999997
30
0
11
115.00000000000003
21
-89.999999999999972
31
0
0
LWPOLYLINE
5
263
100
AcDbEntity
8
0
100
AcDbPolyline
90
4
70
1
43
0.0
10
155.00000000000003
20
-174.99999999999997
10
115.00000000000003
20
-174.99999999999997
10
115.00000000000003
20
-134.99999999999997
10
155.00000000000003
20
-134.99999999999997
0
LINE
5
264
100
AcDbEntity
8
0
100
AcDbLine
10
200.00000000000003
20
-174.99999999999997
30
0
11
160.00000000000003
21
-174.99999999999997
31
0
0
LINE
5
265
100
AcDbEntity
8
0
100
AcDbLine
10
200.00000000000003
20
-129.99999999999997
30
0
11
160.00000000000003
21
-129.99999999999997
31
0
0
LINE
5
266
100
AcDbEntity
8
0
100
AcDbLine
10
200.00000000000003
20
-89.999999999999972
30
0
11
200.00000000000003
21
-129.99999999999997
31
0
0
LINE
5
267
100
AcDbEntity
8
0
100
AcDbLine
10
-109.99999999999997
20
-39.999999999999964
30
0
11
-109.99999999999997
21
3.5527136788005009e-14
31
0
0
LWPOLYLINE
5
268
100
AcDbEntity
8
0
100
AcDbPolyline
90
4
70
1
43
0.0
10
-64.999999999999972
20
-129.99999999999997
10
-64.999999999999972
20
-89.999999999999972
10
-24.999999999999964
20
-89.999999999999972
10
-24.999999999999964
20
-129.99999999999997
0
LWPOLYLINE
5
269
100
AcDbEntity
8
0
100
AcDbPolyline
90
4
70
1
43
0.0
10
-24.999999999999964
20
-174.99999999999997
10
-64.999999999999972
20
-174.99999999999997
10
-64.999999999999972
20
-134.99999999999997
10
-24.999999999999964
20
-134.99999999999997
0
LINE
5
270
100
AcDbEntity
8
0
100
AcDbLine
10
-19.999999999999964
20
-174.99999999999997
30
0
11
-19.999999999999964
21
-134.99999999999997
31
0
0
LINE
5
271
100
AcDbEntity
8
0
100
AcDbLine
10
-114.99999999999997
20
-129.99999999999997
30
0
11
-154.99999999999997
21
-129.99999999999997
31
0
0
LWPOLYLINE
5
272
100
AcDbEntity
8
0
100
AcDbPolyline
90
4
70
1
43
0.0
10
-154.99999999999997
20
-174.99999999999997
10
-154.99999999999997
20
-134.99999999999997
10
-114.99999999999997
20
-134.99999999999997
10
-114.99999999999997
20
-174.99999999999997
0
LINE
5
273
100
AcDbEntity
8
0
100
AcDbLine
10
-69.999999999999972
20
-129.99999999999997
30
0
11
-109.99999999999997
21
-129.99999999999997
31
0
0
LINE
5
274
100
AcDbEntity
8
0
100
AcDbLine
10
-69.999999999999972
20
-174.99999999999997
30
0
11
-109.99999999999997
21
-174.99999999999997
31
0
0
LWPOLYLINE
5
275
100
AcDbEntity
8
0
100
AcDbPolyline
90
4
70
1
43
0.0
10
-154.99999999999997
20
-89.999999999999972
10
-114.99999999999997
20
-89.999999999999972
10
-114.99999999999997
20
-129.99999999999997
10
-154.99999999999997
20
-129.99999999999997
0
LINE
5
276
100
AcDbEntity
8
0
100
AcDbLine
10
-114.99999999999997
20
-134.99999999999997
30
0
11
-114.99999999999997
21
-174.99999999999997
31
0
0
LINE
5
277
100
AcDbEntity
8
0
100
AcDbLine
10
-154.99999999999997
20
-174.99999999999997
30
0
11
-154.99999999999997
21
-134.99999999999997
31
0
0
LINE
5
278
100
AcDbEntity
8
0
100
AcDbLine
10
-154.99999999999997
20
-84.999999999999972
30
0
11
-154.99999999999997
21
-44.999999999999964
31
0
0
LINE
5
279
100
AcDbEntity
8
0
100
AcDbLine
10
-69.999999999999972
20
-134.99999999999997
30
0
11
-69.999999999999972
21
-174.99999999999997
31
0
0
LWPOLYLINE
5
280
100
AcDbEntity
8
0
100
AcDbPolyline
90
4
70
1
43
0.0
10
-114.99999999999997
20
-44.999999999999964
10
-114.99999999999997
20
-84.999999999999972
10
-154.99999999999997
20
-84.999999999999972
10
-154.99999999999997
20
-44.999999999999964
0
LINE
5
281
100
AcDbEntity
8
0
100
AcDbLine
10
-109.99999999999997
20
-134.99999999999997
30
0
11
-69.999999999999972
21
-134.99999999999997
31
0
0
LINE
5
282
100
AcDbEntity
8
0
100
AcDbLine
10
-109.99999999999997
20
-174.99999999999997
30
0
11
-109.99999999999997
21
-134.99999999999997
31
0
0
LINE
5
283
100
AcDbEntity
8
0
100
AcDbLine
10
-154.99999999999997
20
-129.99999999999997
30
0
11
-154.99999999999997
21
-89.999999999999972
31
0
0
LINE
5
284
100
AcDbEntity
8
0
100
AcDbLine
10
-114.99999999999997
20
-174.99999999999997
30
0
11
-154.99999999999997
21
-174.99999999999997
31
0
0
LINE
5
285
100
AcDbEntity
8
0
100
AcDbLine
10
-69.999999999999972
20
-84.999999999999972
30
0
11
-109.99999999999997
21
-84.999999999999972
31
0
0
LINE
5
286
100
AcDbEntity
8
0
100
AcDbLine
10
-109.99999999999997
20
-129.99999999999997
30
0
11
-109.99999999999997
21
-89.999999999999972
31
0
0
LINE
5
287
100
AcDbEntity
8
0
100
AcDbLine
10
-69.999999999999972
20
-89.999999999999972
30
0
11
-69.999999999999972
21
-129.99999999999997
31
0
0
LINE
5
288
100
AcDbEntity
8
0
100
AcDbLine
10
-114.99999999999997
20
-44.999999999999964
30
0
11
-114.99999999999997
21
-84.999999999999972
31
0
0
LWPOLYLINE
5
289
100
AcDbEntity
8
0
100
AcDbPolyline
90
4
70
1
43
0.0
10
115.00000000000003
20
-39.999999999999964
10
115.00000000000003
20
3.5527136788005009e-14
10
155.00000000000003
20
3.5527136788005009e-14
10
155.00000000000003
20
-39.999999999999964
0
LINE
5
290
100
AcDbEntity
8
0
100
AcDbLine
10
155.00000000000003
20
-39.999999999999964
30
0
11
115.00000000000003
21
-39.999999999999964
31
0
0
LINE
5
291
100
AcDbEntity
8
0
100
AcDbLine
10
-154.99999999999997
20
-39.999999999999964
30
0
11
-154.99999999999997
21
3.5527136788005009e-14
31
0
0
LINE
5
292
100
AcDbEntity
8
0
100
AcDbLine
10
-24.999999999999964
20
-174.99999999999997
30
0
11
-64.999999999999972
21
-174.99999999999997
31
0
0
LINE
5
293
100
AcDbEntity
8
0
100
AcDbLine
10
-114.99999999999997
20
3.5527136788005009e-14
30
0
11
-114.99999999999997
21
-39.999999999999964
31
0
0
LINE
5
294
100
AcDbEntity
8
0
100
AcDbLine
10
-114.99999999999997
20
-39.999999999999964
30
0
11
-154.99999999999997
21
-39.999999999999964
31
0
0
LINE
5
295
100
AcDbEntity
8
0
100
AcDbLine
10
-24.999999999999964
20
-129.99999999999997
30
0
11
-64.999999999999972
21
-129.99999999999997
31
0
0
LINE
5
296
100
AcDbEntity
8
0
100
AcDbLine
10
20.000000000000036
20
-84.999999999999972
30
0
11
-19.999999999999964
21
-84.999999999999972
31
0
0
LINE
5
297
100
AcDbEntity
8
0
100
AcDbLine
10
-24.999999999999964
20
-134.99999999999997
30
0
11
-24.999999999999964
21
-174.99999999999997
31
0
0
LINE
5
298
100
AcDbEntity
8
0
100
AcDbLine
10
-19.999999999999964
20
-44.999999999999964
30
0
11
20.000000000000036
21
-44.999999999999964
31
0
0
LINE
5
299
100
AcDbEntity
8
0
100
AcDbLine
10
-19.999999999999964
20
-134.99999999999997
30
0
11
20.000000000000036
21
-134.99999999999997
31
0
0
LINE
5
300
100
AcDbEntity
8
0
100
AcDbLine
10
20.000000000000036
20
-129.99999999999997
30
0
11
-19.999999999999964
21
-129.99999999999997
31
0
0
LINE
5
301
100
AcDbEntity
8
0
100
AcDbLine
10
-19.999999999999964
20
-129.99999999999997
30
0
11
-19.999999999999964
21
-89.999999999999972
31
0
0
LINE
5
302
100
AcDbEntity
8
0
100
AcDbLine
10
160.00000000000003
20
3.5527136788005009e-14
30
0
11
200.00000000000003
21
3.5527136788005009e-14
31
0
0
LINE
5
303
100
AcDbEntity
8
0
100
AcDbLine
10
-64.999999999999972
20
-129.99999999999997
30
0
11
-64.999999999999972
21
-89.999999999999972
31
0
0
LWPOLYLINE
5
304
100
AcDbEntity
8
0
100
AcDbPolyline
90
4
70
1
43
0.0
10
-64.999999999999972
20
3.5527136788005009e-14
10
-24.999999999999964
20
3.5527136788005009e-14
10
-24.999999999999964
20
-39.999999999999964
10
-64.999999999999972
20
-39.999999999999964
0
LINE
5
305
100
AcDbEntity
8
0
100
AcDbLine
10
-19.999999999999964
20
-89.999999999999972
30
0
11
20.000000000000036
21
-89.999999999999972
31
0
0
LWPOLYLINE
5
306
100
AcDbEntity
8
0
100
AcDbPolyline
90
4
70
1
43
0.0
10
-154.99999999999997
20
3.5527136788005009e-14
10
-114.99999999999997
20
3.5527136788005009e-14
10
-114.99999999999997
20
-39.999999999999964
10
-154.99999999999997
20
-39.999999999999964
0
LINE
5
307
100
AcDbEntity
8
0
100
AcDbLine
10
-19.999999999999964
20
3.5527136788005009e-14
30
0
11
20.000000000000036
21
3.5527136788005009e-14
31
0
0
LWPOLYLINE
5
308
100
AcDbEntity
8
0
100
AcDbPolyline
90
4
70
1
43
0.0
10
25.000000000000036
20
3.5527136788005009e-14
10
65.000000000000028
20
3.5527136788005009e-14
10
65.000000000000028
20
-39.999999999999964
10
25.000000000000036
20
-39.999999999999964
0
LINE
5
309
100
AcDbEntity
8
0
100
AcDbLine
10
70.000000000000028
20
3.5527136788005009e-14
30
0
11
110.00000000000003
21
3.5527136788005009e-14
31
0
0
LINE
5
310
100
AcDbEntity
8
0
100
AcDbLine
10
-109.99999999999997
20
3.5527136788005009e-14
30
0
11
-69.999999999999972
21
3.5527136788005009e-14
31
0
0
LINE
5
311
100
AcDbEntity
8
0
100
AcDbLine
10
20.000000000000036
20
-174.99999999999997
30
0
11
-19.999999999999964
21
-174.99999999999997
31
0
0
LINE
5
312
100
AcDbEntity
8
0
100
AcDbLine
10
-114.99999999999997
20
-89.999999999999972
30
0
11
-114.99999999999997
21
-129.99999999999997
31
0
0
LINE
5
313
100
AcDbEntity
8
0
100
AcDbLine
10
-109.99999999999997
20
-44.999999999999964
30
0
11
-69.999999999999972
21
-44.999999999999964
31
0
0
LINE
5
314
100
AcDbEntity
8
0
100
AcDbLine
10
-109.99999999999997
20
-89.999999999999972
30
0
11
-69.999999999999972
21
-89.999999999999972
31
0
0
LINE
5
315
100
AcDbEntity
8
0
100
AcDbLine
10
-109.99999999999997
20
-84.999999999999972
30
0
11
-109.99999999999997
21
-44.999999999999964
31
0
0
LINE
5
316
100
AcDbEntity
8
0
100
AcDbLine
10
-69.999999999999972
20
-44.999999999999964
30
0
11
-69.999999999999972
21
-84.999999999999972
31
0
0
LINE
5
317
100
AcDbEntity
8
0
100
AcDbLine
10
-114.99999999999997
20
-84.999999999999972
30
0
11
-154.99999999999997
21
-84.999999999999972
31
0
0
LINE
5
318
100
AcDbEntity
8
0
100
AcDbLine
10
200.00000000000003
20
3.5527136788005009e-14
30
0
11
200.00000000000003
21
-39.999999999999964
31
0
0
LINE
5
319
100
AcDbEntity
8
0
100
AcDbLine
10
-24.999999999999964
20
-39.999999999999964
30
0
11
-64.999999999999972
21
-39.999999999999964
31
0
0
LINE
5
320
100
AcDbEntity
8
0
100
AcDbLine
10
155.00000000000003
20
-89.999999999999972
30
0
11
155.00000000000003
21
-129.99999999999997
31
0
0
LINE
5
321
100
AcDbEntity
8
0
100
AcDbLine
10
115.00000000000003
20
-39.999999999999964
30
0
11
115.00000000000003
21
3.5527136788005009e-14
31
0
0
LWPOLYLINE
5
322
100
AcDbEntity
8
0
100
AcDbPolyline
90
4
70
1
43
0.0
10
155.00000000000003
20
-44.999999999999964
10
155.00000000000003
20
-84.999999999999972
10
115.00000000000003
20
-84.999999999999972
10
115.00000000000003
20
-44.999999999999964
0
LINE
5
323
100
AcDbEntity
8
0
100
AcDbLine
10
115.00000000000003
20
-84.999999999999972
30
0
11
115.00000000000003
21
-44.999999999999964
31
0
0
LINE
5
324
100
AcDbEntity
8
0
100
AcDbLine
10
155.00000000000003
20
-84.999999999999972
30
0
11
115.00000000000003
21
-84.999999999999972
31
0
0
LINE
5
325
100
AcDbEntity
8
0
100
AcDbLine
10
155.00000000000003
20
-44.999999999999964
30
0
11
155.00000000000003
21
-84.999999999999972
31
0
0
LINE
5
326
100
AcDbEntity
8
0
100
AcDbLine
10
160.00000000000003
20
-44.999999999999964
30
0
11
200.00000000000003
21
-44.999999999999964
31
0
0
LINE
5
327
100
AcDbEntity
8
0
100
AcDbLine
10
200.00000000000003
20
-84.999999999999972
30
0
11
160.00000000000003
21
-84.999999999999972
31
0
0
LINE
5
328
100
AcDbEntity
8
0
100
AcDbLine
10
160.00000000000003
20
-84.999999999999972
30
0
11
160.00000000000003
21
-44.999999999999964
31
0
0
LINE
5
329
100
AcDbEntity
8
0
100
AcDbLine
10
-19.999999999999964
20
-39.999999999999964
30
0
11
-19.999999999999964
21
3.5527136788005009e-14
31
0
0
LINE
5
330
100
AcDbEntity
8
0
100
AcDbLine
10
110.00000000000003
20
-44.999999999999964
30
0
11
110.00000000000003
21
-84.999999999999972
31
0
0
LINE
5
331
100
AcDbEntity
8
0
100
AcDbLine
10
200.00000000000003
20
-44.999999999999964
30
0
11
200.00000000000003
21
-84.999999999999972
31
0
0
LINE
5
332
100
AcDbEntity
8
0
100
AcDbLine
10
110.00000000000003
20
-129.99999999999997
30
0
11
70.000000000000028
21
-129.99999999999997
31
0
0
LINE
5
333
100
AcDbEntity
8
0
100
AcDbLine
10
110.00000000000003
20
-174.99999999999997
30
0
11
70.000000000000028
21
-174.99999999999997
31
0
0
LINE
5
334
100
AcDbEntity
8
0
100
AcDbLine
10
70.000000000000028
20
-134.99999999999997
30
0
11
110.00000000000003
21
-134.99999999999997
31
0
0
LINE
5
335
100
AcDbEntity
8
0
100
AcDbLine
10
70.000000000000028
20
-89.999999999999972
30
0
11
110.00000000000003
21
-89.999999999999972
31
0
0
LINE
5
336
100
AcDbEntity
8
0
100
AcDbLine
10
25.000000000000036
20
-39.999999999999964
30
0
11
25.000000000000036
21
3.5527136788005009e-14
31
0
0
LWPOLYLINE
5
337
100
AcDbEntity
8
0
100
AcDbPolyline
90
4
70
1
43
0.0
10
-64.999999999999972
20
-44.999999999999964
10
-24.999999999999964
20
-44.999999999999964
10
-24.999999999999964
20
-84.999999999999972
10
-64.999999999999972
20
-84.999999999999972
0
LINE
5
338
100
AcDbEntity
8
0
100
AcDbLine
10
-69.999999999999972
20
-39.999999999999964
30
0
11
-109.99999999999997
21
-39.999999999999964
31
0
0
LINE
5
339
100
AcDbEntity
8
0
100
AcDbLine
10
20.000000000000036
20
3.5527136788005009e-14
30
0
11
20.000000000000036
21
-39.999999999999964
31
0
0
LINE
5
340
100
AcDbEntity
8
0
100
AcDbLine
10
-24.999999999999964
20
-44.999999999999964
30
0
11
-24.999999999999964
21
-84.999999999999972
31
0
0
LINE
5
341
100
AcDbEntity
8
0
100
AcDbLine
10
-64.999999999999972
20
-39.999999999999964
30
0
11
-64.999999999999972
21
3.5527136788005009e-14
31
0
0
LINE
5
342
100
AcDbEntity
8
0
100
AcDbLine
10
-24.999999999999964
20
-84.999999999999972
30
0
11
-64.999999999999972
21
-84.999999999999972
31
0
0
LINE
5
343
100
AcDbEntity
8
0
100
AcDbLine
10
-24.999999999999964
20
3.5527136788005009e-14
30
0
11
-24.999999999999964
21
-39.999999999999964
31
0
0
LINE
5
344
100
AcDbEntity
8
0
100
AcDbLine
10
-19.999999999999964
20
-84.999999999999972
30
0
11
-19.999999999999964
21
-44.999999999999964
31
0
0
LINE
5
345
100
AcDbEntity
8
0
100
AcDbLine
10
160.00000000000003
20
-39.999999999999964
30
0
11
160.00000000000003
21
3.5527136788005009e-14
31
0
0
LINE
5
346
100
AcDbEntity
8
0
100
AcDbLine
10
-64.999999999999972
20
-84.999999999999972
30
0
11
-64.999999999999972
21
-44.999999999999964
31
0
0
LINE
5
347
100
AcDbEntity
8
0
100
AcDbLine
10
-69.999999999999972
20
3.5527136788005009e-14
30
0
11
-69.999999999999972
21
-39.999999999999964
31
0
0
LINE
5
348
100
AcDbEntity
8
0
100
AcDbLine
10
65.000000000000028
20
3.5527136788005009e-14
30
0
11
65.000000000000028
21
-39.999999999999964
31
0
0
LINE
5
349
100
AcDbEntity
8
0
100
AcDbLine
10
110.00000000000003
20
-39.999999999999964
30
0
11
70.000000000000028
21
-39.999999999999964
31
0
0
LINE
5
350
100
AcDbEntity
8
0
100
AcDbLine
10
155.00000000000003
20
3.5527136788005009e-14
30
0
11
155.00000000000003
21
-39.999999999999964
31
0
0
LINE
5
351
100
AcDbEntity
8
0
100
AcDbLine
10
70.000000000000028
20
-39.999999999999964
30
0
11
70.000000000000028
21
3.5527136788005009e-14
31
0
0
LINE
5
352
100
AcDbEntity
8
0
100
AcDbLine
10
-64.999999999999972
20
-174.99999999999997
30
0
11
-64.999999999999972
21
-134.99999999999997
31
0
0
LINE
5
353
100
AcDbEntity
8
0
100
AcDbLine
10
200.00000000000003
20
-39.999999999999964
30
0
11
160.00000000000003
21
-39.999999999999964
31
0
0
LINE
5
354
100
AcDbEntity
8
0
100
AcDbLine
10
110.00000000000003
20
3.5527136788005009e-14
30
0
11
110.00000000000003
21
-39.999999999999964
31
0
0
LINE
5
355
100
AcDbEntity
8
0
100
AcDbLine
10
-24.999999999999964
20
-89.999999999999972
30
0
11
-24.999999999999964
21
-129.99999999999997
31
0
0
LINE
5
356
100
AcDbEntity
8
0
100
AcDbLine
10
20.000000000000036
20
-39.999999999999964
30
0
11
-19.999999999999964
21
-39.999999999999964
31
0
0
LINE
5
357
100
AcDbEntity
8
0
100
AcDbLine
10
-135
20
185
30
0
11
-135
21
-180
31
0
0
LINE
5
358
100
AcDbEntity
8
0
100
AcDbLine
10
-90
20
185
30
0
11
-90
21
-180
31
0
0
LINE
5
359
100
AcDbEntity
8
0
100
AcDbLine
10
0
20
185
30
0
11
0
21
-180
31
0
0
LINE
5
360
100
AcDbEntity
8
0
100
AcDbLine
10
-45
20
185
30
0
11
-45
21
-180
31
0
0
LINE
5
361
100
AcDbEntity
8
0
100
AcDbLine
10
180
20
185
30
0
11
180
21
-180
31
0
0
LINE
5
362
100
AcDbEntity
8
0
100
AcDbLine
10
135
20
185
30
0
11
135
21
-180
31
0
0
LINE
5
363
100
AcDbEntity
8
0
100
AcDbLine
10
90
20
185
30
0
11
90
21
-180
31
0
0
LINE
5
364
100
AcDbEntity
8
0
100
AcDbLine
10
45
20
185
30
0
11
45
21
-180
31
0
0
LINE
5
365
100
AcDbEntity
8
0
100
AcDbLine
10
-159.49999999999997
20
159.50000000000009
30
0
11
205.5
21
159.5
31
0
0
LINE
5
366
100
AcDbEntity
8
0
100
AcDbLine
10
-159.49999999999997
20
114.50000000000009
30
0
11
205.5
21
114.50000000000001
31
0
0
LINE
5
367
100
AcDbEntity
8
0
100
AcDbLine
10
-159.49999999999997
20
69.500000000000085
30
0
11
205.5
21
69.500000000000014
31
0
0
LINE
5
368
100
AcDbEntity
8
0
100
AcDbLine
10
-159.5
20
24.500000000000082
30
0
11
205.5
21
24.500000000000011
31
0
0
LINE
5
369
100
AcDbEntity
8
0
100
AcDbLine
10
-159.5
20
-20.499999999999918
30
0
11
205.5
21
-20.499999999999989
31
0
0
LINE
5
370
100
AcDbEntity
8
0
100
AcDbLine
10
-159.5
20
-65.499999999999915
30
0
11
205.5
21
-65.499999999999986
31
0
0
LINE
5
371
100
AcDbEntity
8
0
100
AcDbLine
10
-159.50000000000006
20
-110.49999999999991
30
0
11
205.49999999999994
21
-110.49999999999999
31
0
0
LINE
5
372
100
AcDbEntity
8
0
100
AcDbLine
10
-159.50000000000006
20
-155.49999999999991
30
0
11
205.49999999999994
21
-155.5
31
0
0
LINE
5
373
100
AcDbEntity
8
0
100
AcDbLine
10
225.00000000000003
20
205.00000000000003
30
0
11
225.00000000000003
21
-199.99999999999989
31
0
0
LINE
5
374
100
AcDbEntity
8
0
100
AcDbLine
10
-179.99999999999997
20
-199.99999999999989
30
0
11
-179.99999999999997
21
205.00000000000003
31
0
0
CIRCLE
5
375
100
AcDbEntity
8
0
100
AcDbCircle
10
-169.07262077372474
20
193.84077596715588
30
0
40
7.5000000000000098
210
0
220
0
230
1
0
CIRCLE
5
376
100
AcDbEntity
8
0
100
AcDbCircle
10
-169.07262077372474
20
-189.15922403284415
30
0
40
7.5000000000000098
210
0
220
0
230
1
0
CIRCLE
5
377
100
AcDbEntity
8
0
100
AcDbCircle
10
213.92737922627532
20
193.84077596715588
30
0
40
7.5000000000000098
210
0
220
0
230
1
0
CIRCLE
5
378
100
AcDbEntity
8
0
100
AcDbCircle
10
213.92737922627532
20
-189.15922403284415
30
0
40
7.5000000000000098
210
0
220
0
230
1
0
LINE
5
379
100
AcDbEntity
8
0
100
AcDbLine
10
90
20
-199.99999999999989
30
0
11
90
21
-270
31
0
0
LINE
5
380
100
AcDbEntity
8
0
100
AcDbLine
10
90
20
-270
30
0
11
-45
21
-270
31
0
0
LINE
5
381
100
AcDbEntity
8
0
100
AcDbLine
10
-45
20
-270
30
0
11
-45
21
-199.99999999999989
31
0
0
LINE
5
382
100
AcDbEntity
8
0
100
AcDbLine
10
-179.99999999999997
20
-199.99999999999989
30
0
11
-45
21
-199.99999999999989
31
0
0
LINE
5
383
100
AcDbEntity
8
0
100
AcDbLine
10
90
20
-199.99999999999989
30
0
11
225.00000000000003
21
-199.99999999999989
31
0
0
LINE
5
384
100
AcDbEntity
8
0
100
AcDbLine
10
224.99999999999994
20
205.00000000000017
30
0
11
90
21
205.00000000000014
31
0
0
LINE
5
385
100
AcDbEntity
8
0
100
AcDbLine
10
90
20
275.00000000000023
30
0
11
90
21
205.00000000000014
31
0
0
LINE
5
386
100
AcDbEntity
8
0
100
AcDbLine
10
-45
20
275.00000000000023
30
0
11
90
21
275.00000000000023
31
0
0
LINE
5
387
100
AcDbEntity
8
0
100
AcDbLine
10
-44.999999999999964
20
205.00000000000014
30
0
11
-45
21
275.00000000000023
31
0
0
LINE
5
388
100
AcDbEntity
8
0
100
AcDbLine
10
-44.999999999999964
20
205.00000000000014
30
0
11
-180.00000000000006
21
205.00000000000011
31
0
0
LINE
5
389
100
AcDbEntity
8
0
100
AcDbLine
10
-186.00000277161598
20
2.5000000000000355
30
0
11
-198.00000295042992
21
2.5000000000000355
31
0
0
LWPOLYLINE
5
390
100
AcDbEntity
8
0
100
AcDbPolyline
90
4
70
1
43
0.0
10
35
20
-230
10
80
20
-230
10
80
20
-260
10
35
20
-260
0
LWPOLYLINE
5
391
100
AcDbEntity
8
0
100
AcDbPolyline
90
4
70
1
43
0.0
10
-35
20
-230
10
15
20
-230
10
15
20
-260
10
-35
20
-260
0
LWPOLYLINE
5
392
100
AcDbEntity
8
0
100
AcDbPolyline
90
4
70
1
43
0.0
10
35
20
235.00000000000006
10
80
20
235.00000000000006
10
80
20
265.00000000000006
10
35
20
265.00000000000006
0
LWPOLYLINE
5
393
100
AcDbEntity
8
0
100
AcDbPolyline
90
4
70
1
43
0.0
10
15
20
265.00000000000006
10
-35
20
265.00000000000006
10
-35
20
235.00000000000006
10
15
20
235.00000000000006
0
ENDSEC
0
SECTION
2
OBJECTS
0
DICTIONARY
5
C
100
AcDbDictionary
3
ACAD_GROUP
350
D
3
ACAD_MLINESTYLE
350
17
0
DICTIONARY
5
D
100
AcDbDictionary
0
DICTIONARY
5
1A
330
C
100
AcDbDictionary
0
DICTIONARY
5
17
100
AcDbDictionary
0
ENDSEC
0
EOF
