<?xml version="1.0" encoding="UTF-8" standalone="no"?>
<!-- Created with Inkscape (http://www.inkscape.org/) -->

<svg
   width="210mm"
   height="297mm"
   viewBox="0 0 210 297"
   version="1.1"
   id="svg5"
   xml:space="preserve"
   inkscape:export-filename="位图.svg"
   inkscape:export-xdpi="96"
   inkscape:export-ydpi="96"
   xmlns:inkscape="http://www.inkscape.org/namespaces/inkscape"
   xmlns:sodipodi="http://sodipodi.sourceforge.net/DTD/sodipodi-0.dtd"
   xmlns="http://www.w3.org/2000/svg"
   xmlns:svg="http://www.w3.org/2000/svg"><sodipodi:namedview
     id="namedview7"
     pagecolor="#ffffff"
     bordercolor="#000000"
     borderopacity="0.25"
     inkscape:showpageshadow="2"
     inkscape:pageopacity="0.0"
     inkscape:pagecheckerboard="0"
     inkscape:deskcolor="#d1d1d1"
     inkscape:document-units="mm"
     showgrid="false" /><defs
     id="defs2" /><g
     inkscape:label="图层 1"
     inkscape:groupmode="layer"
     id="layer1"><path
       style="fill:#000000;stroke:#000000;stroke-width:0.264583;stroke-opacity:1"
       d="m 132.04138,142.9929 c -2.13451,-1.06858 -2.70331,-1.47403 -2.84177,-2.02569 -0.21827,-0.86969 0.17136,-1.50812 0.99017,-1.6224 1.02746,-0.14341 1.10436,-0.44177 0.3865,-1.4996 -0.37295,-0.54958 -0.6781,-1.10971 -0.6781,-1.24473 0,-0.13502 -0.23292,-0.17156 -0.5176,-0.0812 -0.77644,0.24643 -2.27513,-0.11194 -2.89909,-0.69324 -0.76537,-0.71306 -0.74602,-2.17994 0.036,-2.72767 0.69708,-0.48826 1.56613,-0.53312 1.9962,-0.10305 0.4615,0.4615 0.67612,-0.31444 0.33508,-1.21144 -0.30757,-0.80898 -0.17291,-1.21405 0.40359,-1.21405 0.80452,0 0.33031,-0.47925 -0.74322,-0.75111 -4.69352,-1.1886 -6.764,-6.06005 -4.44741,-10.46396 0.66072,-1.25605 0.69282,-1.42991 0.31016,-1.68022 -0.38389,-0.25113 -0.3869,-0.35287 -0.0299,-1.01171 0.21828,-0.40287 0.77623,-0.86166 1.23989,-1.01952 0.70229,-0.23911 0.79897,-0.36521 0.57917,-0.75539 -0.1451,-0.25759 -0.19516,-0.68471 -0.11123,-0.94915 0.12833,-0.40434 -0.09,-0.53437 -1.37293,-0.81781 -3.43231,-0.75827 -5.62657,-2.49517 -5.62657,-4.45382 0,-4.50324 7.12022,-4.25995 12.81833,0.43798 l 1.53549,1.26597 0.82674,-0.75622 c 1.23391,-1.12866 3.01685,-1.89348 4.69747,-2.01504 1.98493,-0.14358 3.24631,0.30665 4.13583,1.47621 0.66152,0.86978 0.72137,1.13887 0.68664,3.08737 -0.0215,1.20827 -0.22256,2.63719 -0.46323,3.29287 l -0.42518,1.15833 0.95606,1.05824 c 1.49932,1.65957 2.04708,3.15696 2.05618,5.62093 0.007,1.79152 -0.10172,2.32778 -0.70521,3.49093 -0.79301,1.5284 -2.29978,2.73026 -4.09863,3.26921 -1.26231,0.3782 -1.28782,0.41933 -0.67801,1.09316 0.41224,0.45552 0.40637,0.5245 -0.0918,1.07916 -0.33532,0.37334 -0.47376,0.7883 -0.37425,1.12171 0.24857,0.83277 1.44779,2.50665 1.79845,2.51027 0.17467,0.002 0.41279,0.15461 0.52916,0.33957 0.11637,0.18497 0.53901,0.48007 0.93919,0.65579 1.08402,0.47598 0.96372,1.18547 -0.18424,1.08656 -0.50152,-0.0432 -1.00754,0.0167 -1.12448,0.1332 -0.11695,0.11646 -0.27216,1.05881 -0.34492,2.0941 l -0.1323,1.88235 -2.51354,0.7406 c -1.38244,0.40732 -2.81119,0.88458 -3.175,1.06056 -0.3638,0.17598 -0.73965,0.35551 -0.83522,0.39895 -0.0956,0.0434 -1.37465,-0.5222 -2.84241,-1.25699 z m 3.80962,-0.25166 c 0.37308,-0.72146 0.37094,-0.853 -0.0236,-1.45521 -0.51503,-0.78604 -1.69815,-0.92523 -1.6918,-0.19903 0.004,0.39956 0.0425,0.40862 0.28473,0.0661 0.24949,-0.35278 0.26864,-0.35278 0.17234,0 -0.15525,0.56871 -1.09684,0.49289 -1.21053,-0.0975 -0.0524,-0.2719 0.0153,-0.42605 0.1504,-0.34256 0.14244,0.088 0.20182,-0.33784 0.14137,-1.01383 -0.0573,-0.64109 0.0188,-1.39554 0.1692,-1.67656 0.22249,-0.41572 0.12692,-0.66427 -0.5128,-1.33368 -0.85906,-0.89892 -0.93812,-1.2631 -0.48848,-2.24997 0.3093,-0.67882 1.22614,-1.06816 1.90339,-0.80827 0.61416,0.23567 0.74427,-0.27664 0.39855,-1.56924 -0.33145,-1.23924 -0.67725,-1.48085 -2.1299,-1.48813 -0.52021,-0.003 -0.82616,0.19888 -1.09934,0.72399 -0.20819,0.40018 -0.6875,1.01625 -1.06513,1.36904 -0.54718,0.51118 -0.6866,0.8893 -0.6866,1.86216 0,1.35098 0.9854,3.62424 1.52395,3.51567 0.43097,-0.0869 0.41434,0.23638 -0.0591,1.14894 -0.28077,0.54118 -0.58993,0.74954 -1.12448,0.75785 -0.60167,0.009 -0.73724,0.12995 -0.73724,0.65585 0,0.54393 0.35065,0.82003 2.24896,1.77082 2.73815,1.37143 3.28798,1.42353 3.83615,0.36349 z m 1.7201,-0.56099 c 0,-0.14552 -0.11907,-0.191 -0.26459,-0.10106 -0.14552,0.0899 -0.26458,0.0176 -0.26458,-0.16077 0,-0.17837 -0.0623,-0.26196 -0.13852,-0.18578 -0.22538,0.22538 0.17248,1.01825 0.43083,0.85858 0.13027,-0.0805 0.23686,-0.26545 0.23686,-0.41097 z m 0.93304,0.0823 c -0.0815,-0.0815 -0.29496,-1.7e-4 -0.47443,0.18065 -0.25936,0.26131 -0.22897,0.2917 0.14811,0.14812 0.26094,-0.0994 0.40778,-0.24731 0.32632,-0.32877 z m 0.97196,-0.89776 c -0.24695,-0.24695 -0.39051,-0.2445 -0.64602,0.011 -0.26164,0.26165 -0.24862,0.37791 0.0639,0.57108 0.53058,0.32792 1.01133,-0.15284 0.58209,-0.58208 z m -1.11125,-0.0794 c 0.27854,-0.33562 0.22228,-0.39687 -0.36448,-0.39687 -0.67076,0 -0.88237,0.25246 -0.51747,0.61736 0.27381,0.2738 0.52354,0.21137 0.88195,-0.22049 z m -1.47235,-0.36915 c 0.0805,-0.13027 -0.0277,-0.30367 -0.24049,-0.38532 -0.41346,-0.15866 -0.76656,0.17125 -0.48483,0.45298 0.23918,0.23919 0.55382,0.20984 0.72532,-0.0677 z m 3.58496,-0.62304 c 0.007,-0.33946 -0.709,-0.2176 -1.03593,0.17633 -0.24721,0.29788 -0.21314,0.39533 0.16604,0.47495 0.45065,0.0946 0.86093,-0.21254 0.86989,-0.65128 z m -1.28511,-0.11693 c 0.19971,-0.24622 0.22446,-0.36454 0.055,-0.26294 -0.16947,0.10161 -0.36295,0.0352 -0.42995,-0.14765 -0.0928,-0.25325 -0.19978,-0.25913 -0.44933,-0.0247 -0.32646,0.30668 -0.16682,0.88295 0.24459,0.88295 0.11911,0 0.37998,-0.20145 0.5797,-0.44766 z m -3.31627,-0.4791 c 0.48777,-0.48777 0.59824,-0.77641 0.41944,-1.09591 -0.1335,-0.23855 -0.18488,-0.65495 -0.11418,-0.92532 0.10355,-0.39598 -0.019,-0.48977 -0.62991,-0.48221 -0.75417,0.009 -0.75505,0.0113 -0.15485,0.34447 0.33199,0.18431 0.54403,0.39469 0.47121,0.46751 -0.0728,0.0728 -0.16141,0.51312 -0.19687,0.97844 -0.0726,0.9528 -0.45384,1.07787 -1.1021,0.36154 -0.48463,-0.53551 -0.33992,-0.83842 0.40054,-0.83842 0.26679,0 0.48507,-0.1786 0.48507,-0.39688 0,-0.46386 -0.36053,-0.50574 -1.07266,-0.12462 -0.86632,0.46364 -0.37131,2.35041 0.62167,2.36953 0.11575,0.002 0.50844,-0.29393 0.87264,-0.65813 z m 1.35878,0.23774 c -0.0879,-0.0879 -0.31613,-0.0973 -0.50712,-0.0209 -0.21107,0.0845 -0.14837,0.14715 0.15985,0.15985 0.27891,0.0115 0.43518,-0.0511 0.34727,-0.13897 z m 3.77582,-0.5016 c 0,-0.21828 -0.11204,-0.39688 -0.24897,-0.39688 -0.33363,0 -0.57258,0.41317 -0.3612,0.62456 0.29797,0.29797 0.61017,0.18147 0.61017,-0.22768 z m -5.55625,-0.41249 c 0,-0.13694 -0.17859,-0.24897 -0.39688,-0.24897 -0.40915,0 -0.52564,0.3122 -0.22767,0.61017 0.21138,0.21138 0.62455,-0.0276 0.62455,-0.3612 z m 4.59887,-0.13042 c 0.0904,-0.23546 0.046,-0.34166 -0.10398,-0.24897 -0.14386,0.0889 -0.26156,0.27369 -0.26156,0.41062 0,0.38058 0.18965,0.29672 0.36554,-0.16165 z m -2.42725,-0.73946 c -0.46288,-0.34151 -0.76382,-0.69869 -0.66876,-0.79375 0.28854,-0.28855 0.61795,-0.19358 0.54766,0.15789 -0.0364,0.1819 0.14093,0.31441 0.39403,0.29445 0.25309,-0.0199 0.38782,0.0808 0.29939,0.22388 -0.0895,0.14484 0.0583,0.21836 0.33358,0.16586 0.27189,-0.0519 0.53238,-0.36077 0.57885,-0.68647 0.063,-0.4415 -0.10001,-0.66233 -0.64062,-0.86787 -1.3976,-0.53136 -2.20715,0.12725 -1.71999,1.39931 0.20949,0.54704 0.45718,0.72761 0.99805,0.72761 h 0.71941 z m 0.34192,-0.96659 c -0.0899,-0.14552 0.0221,-0.26458 0.24897,-0.26458 0.22687,0 0.41249,0.11906 0.41249,0.26458 0,0.14552 -0.11204,0.26458 -0.24897,0.26458 -0.13693,0 -0.32255,-0.11906 -0.41249,-0.26458 z m 2.74129,0.54795 c -0.34354,-0.28072 -0.72736,-0.41015 -0.85292,-0.28764 -0.3685,0.35953 0.0724,0.79802 0.80239,0.79802 h 0.67516 z m 1.35975,-0.66463 c 0,-0.35521 -0.11906,-0.71943 -0.26458,-0.80936 -0.14552,-0.0899 -0.26458,0.0123 -0.26458,0.22733 0,0.21496 -0.0723,0.57918 -0.1606,0.80936 -0.10539,0.27464 -0.0144,0.41852 0.26458,0.41852 0.2744,0 0.42518,-0.22904 0.42518,-0.64585 z m -0.89481,0.0661 c 0.10727,-0.17357 0.0414,-0.36623 -0.14661,-0.4289 -0.27469,-0.0916 -0.27242,-0.15641 0.0116,-0.33196 0.52334,-0.32345 0.0927,-0.59933 -0.64607,-0.4139 -0.35319,0.0886 -0.70926,0.41775 -0.79127,0.73134 -0.11192,0.42798 -0.0736,0.49468 0.15359,0.26748 0.3428,-0.3428 0.74182,-0.40268 0.6947,-0.10426 -0.10146,0.64256 0.38396,0.83042 0.72402,0.2802 z m -4.09844,-0.85241 c 0.49072,-0.20557 1.17129,-0.67165 1.51239,-1.03571 0.6151,-0.65652 0.61579,-0.6643 0.0835,-0.94915 -0.75582,-0.4045 -1.94196,-0.3567 -2.60086,0.10481 -0.49441,0.3463 -0.59762,0.3463 -0.88502,0 -0.39219,-0.47256 -1.35704,-0.5126 -1.79513,-0.0745 -0.44523,0.44523 -0.39519,1.4191 0.0983,1.91256 0.5232,0.52319 2.38612,0.54501 3.58681,0.042 z m 2.08284,-0.007 c 0,-0.27926 -0.50777,-0.39658 -0.65879,-0.15222 -0.0914,0.14789 0.0194,0.2689 0.2463,0.2689 0.22687,0 0.41249,-0.0525 0.41249,-0.11668 z m -9.94352,-0.3085 c 0.30515,-0.1171 0.41852,-0.52239 0.41852,-1.49622 0,-1.28447 -0.0188,-1.31859 -0.49123,-0.89106 -0.43852,0.39686 -0.52717,0.40126 -0.82615,0.041 -0.40156,-0.48385 -1.10312,-0.52305 -1.54012,-0.0861 -1.12424,1.12423 0.81307,3.05624 2.43898,2.43232 z m 10.56895,-0.49934 c -0.0834,-0.21745 -0.26024,-0.32828 -0.39289,-0.2463 -0.27744,0.17146 -0.0547,0.64165 0.30393,0.64165 0.13237,0 0.1724,-0.17791 0.089,-0.39535 z m 0.16832,-0.92756 c 0,-0.14552 -0.12609,-0.26459 -0.2802,-0.26459 -0.15411,0 -0.20662,0.11907 -0.11668,0.26459 0.0899,0.14552 0.21603,0.26458 0.2802,0.26458 0.0642,0 0.11668,-0.11906 0.11668,-0.26458 z m -0.92605,-0.79375 c -0.0899,-0.14552 -0.28258,-0.26459 -0.4281,-0.26459 -0.14552,0 -0.191,0.11907 -0.10106,0.26459 0.0899,0.14552 0.28258,0.26458 0.4281,0.26458 0.14552,0 0.191,-0.11906 0.10106,-0.26458 z m -2.05603,-0.15986 c -0.0879,-0.0879 -0.31612,-0.0973 -0.50712,-0.0209 -0.21106,0.0845 -0.14837,0.14715 0.15986,0.15985 0.27891,0.0115 0.43518,-0.0511 0.34726,-0.13897 z m 1.12999,-0.10473 c 0,-0.14552 -0.11906,-0.26458 -0.26458,-0.26458 -0.14552,0 -0.26458,0.11906 -0.26458,0.26458 0,0.14552 0.11906,0.26459 0.26458,0.26459 0.14552,0 0.26458,-0.11907 0.26458,-0.26459 z m 0.62957,-1.12093 c 0.23062,-0.23063 0.57027,-0.47012 0.75477,-0.53221 0.26512,-0.0892 0.25932,-0.20512 -0.0277,-0.55279 -0.27431,-0.33231 -0.8082,-0.4399 -2.18281,-0.4399 -1.00083,0 -1.81969,0.0755 -1.81969,0.16774 0,0.0923 0.13168,0.60725 0.29262,1.14442 0.29078,0.97052 0.29979,0.9756 1.42804,0.80437 0.62448,-0.0948 1.32411,-0.361 1.55474,-0.59163 z m -7.67484,-0.80965 c 0.60412,-0.80915 0.45954,-1.11493 -0.41688,-0.88166 -1.13269,0.30148 -1.35621,0.5676 -1.01392,1.20717 0.37261,0.69623 0.72839,0.61529 1.4308,-0.32551 z m 8.74421,-1.8 c 2.40287,-0.66714 3.3078,-2.9826 1.84505,-4.72097 -1.97446,-2.34652 -6.83104,-3.52009 -10.92963,-2.6411 -3.39582,0.72828 -5.28587,3.74274 -3.60165,5.74432 0.62389,0.74144 1.34908,1.03702 3.97583,1.62051 1.52341,0.33839 7.48846,0.3365 8.7104,-0.003 z m -6.46144,-0.89963 c -0.38713,-0.46646 -0.17528,-0.5093 0.56348,-0.11393 0.38628,0.20673 0.63275,0.19658 0.91504,-0.0377 0.43031,-0.35713 0.78809,-0.17273 0.51674,0.26632 -0.25923,0.41944 -1.61673,0.34141 -1.99526,-0.11469 z m 0.19844,-0.94723 c -1.04796,-0.61038 0.0473,-1.87823 1.12448,-1.30172 0.63182,0.33813 0.69875,1.20122 0.11065,1.4269 -0.54753,0.21011 -0.68306,0.19637 -1.23513,-0.12518 z m 1.14894,-0.64027 c -0.002,-0.14552 -0.24634,-0.30263 -0.54315,-0.34913 -0.53212,-0.0834 -0.71589,0.21699 -0.35411,0.57877 0.25727,0.25727 0.90151,0.0924 0.89726,-0.22964 z m 4.26179,0.0794 c -0.41013,-0.41013 -0.41013,-1.86529 0,-2.27542 0.44823,-0.44823 1.18397,-0.39414 1.37398,0.10102 0.3176,0.82763 0.16938,2.16733 -0.25791,2.3313 -0.59073,0.22668 -0.75568,0.20349 -1.11607,-0.1569 z m -10.58333,-0.79375 c -0.60608,-0.60607 -0.31705,-1.90377 0.52429,-2.35404 1.02173,-0.54682 1.68435,0.88288 1.00098,2.15977 -0.30868,0.57678 -1.04853,0.67101 -1.52527,0.19427 z m 16.08952,0.0473 c 0.67834,-1.32967 0.93773,-3.77034 0.55215,-5.19542 -0.3553,-1.31314 -1.91307,-3.68982 -2.35722,-3.59639 -0.17295,0.0364 -0.29555,-0.0232 -0.27245,-0.13229 0.0231,-0.10914 -0.0493,-0.40704 -0.1608,-0.662 -0.11915,-0.27233 -0.0248,-0.90855 0.22882,-1.54232 0.50996,-1.27452 0.82433,-3.88017 0.58378,-4.83862 -0.21805,-0.86878 -1.31398,-1.96539 -2.18186,-2.18322 -2.42687,-0.6091 -5.90496,0.90581 -7.09356,3.08965 -1.32782,2.43965 -0.63864,3.9537 1.79969,3.9537 1.79336,0 3.61176,-1.11727 4.32008,-2.65437 0.50015,-1.08536 1.13893,-1.3987 1.13893,-0.55868 0,0.84681 -1.76051,2.85693 -3.04808,3.48023 -0.95516,0.46238 -1.54441,0.56419 -2.75761,0.47643 -1.43544,-0.10383 -1.52208,-0.0783 -1.24397,0.36706 0.22015,0.35252 0.22124,0.60043 0.004,0.94076 -0.30553,0.47892 -0.63502,0.50455 -3.6197,0.28159 -0.84541,-0.0632 -1.60363,-0.007 -1.68493,0.12434 -0.0813,0.13154 -0.65948,0.16244 -1.28486,0.0687 -0.97007,-0.14547 -1.22141,-0.0812 -1.71155,0.43767 -2.06414,2.18514 -2.33003,5.61294 -0.63723,8.21495 0.80691,1.24032 1.09196,1.25835 0.95208,0.0602 -0.14232,-1.21906 0.338,-2.32842 1.41912,-3.27765 0.48084,-0.42219 0.79359,-0.86812 0.695,-0.99097 -0.0986,-0.12285 -0.082,-0.14589 0.037,-0.0512 0.11894,0.0947 0.86011,-0.0541 1.64704,-0.33073 2.90812,-1.02212 7.69546,-0.56018 10.3627,0.9999 2.1339,1.24813 2.92548,2.55205 2.7516,4.53251 -0.0473,0.53822 0.011,0.57671 0.48715,0.32188 0.29746,-0.15919 0.78101,-0.76025 1.07457,-1.33567 z m -18.25911,-9.39009 c 0,-0.47048 -0.12706,-0.48612 -0.84175,-0.10363 -0.42813,0.22912 -0.5176,0.21519 -0.42474,-0.0662 0.0647,-0.19603 0.40591,-0.50349 0.75822,-0.68325 0.45067,-0.22994 0.50891,-0.32798 0.19644,-0.33073 -0.45105,-0.004 -1.27567,0.66136 -1.27567,1.02924 0,0.32753 0.19559,0.43324 0.91121,0.49246 0.44756,0.037 0.67629,-0.0773 0.67629,-0.33794 z m 2.51354,0.13526 c 0.0899,-0.14552 -0.0275,-0.26458 -0.26099,-0.26458 -0.23348,0 -0.71676,-0.29225 -1.07395,-0.64944 l -0.64943,-0.64943 v 0.59652 c 0,0.32808 0.14287,0.73939 0.3175,0.91401 0.38513,0.38513 1.44084,0.41864 1.66687,0.0529 z m 4.8948,-0.0453 c 0,-0.47445 -0.824,-1.27891 -1.29778,-1.26701 -0.25906,0.007 -0.14106,0.16301 0.30559,0.40532 0.40018,0.2171 0.7276,0.50999 0.7276,0.65087 0,0.33558 -0.4524,0.3298 -0.66146,-0.008 -0.26468,-0.42827 -0.92778,-0.3124 -0.75713,0.13229 0.1795,0.46778 1.68318,0.54548 1.68318,0.087 z m -2.36464,-0.3666 c 0.26099,-0.23619 0.3978,-0.63123 0.3207,-0.92604 -0.15903,-0.60813 -0.6019,-0.69023 -0.6019,-0.11159 0,0.2214 -0.29765,0.53817 -0.66146,0.70393 -0.3638,0.16576 -0.66145,0.40133 -0.66145,0.5235 0,0.37771 1.12397,0.24472 1.60411,-0.1898 z m -2.5468,-0.97583 c -0.42741,-0.47222 -0.80886,-0.91076 -0.84766,-0.97455 -0.0388,-0.0638 -0.20533,0.0188 -0.37006,0.18353 -0.48289,0.48289 0.42947,1.64959 1.28997,1.64959 h 0.70486 z m 1.97813,-0.15698 c 0.28466,-0.5319 0.10103,-1.63028 -0.27255,-1.63028 -0.12855,0 -0.23373,0.22355 -0.23373,0.49677 0,0.27322 -0.17859,0.64499 -0.39687,0.82615 -0.54871,0.45538 -0.49628,0.79375 0.12298,0.79375 0.28592,0 0.637,-0.21888 0.78017,-0.48639 z m -1.35294,-0.36028 c 0.49321,-0.49322 0.37825,-0.74083 -0.34396,-0.74083 -0.72022,0 -0.73778,0.0224 -0.50086,0.63982 0.19215,0.50074 0.41807,0.52775 0.84482,0.10101 z m 3.34614,-0.4101 c -0.45197,-0.86644 -0.49093,-2.13092 -0.0973,-3.15778 0.26751,-0.69782 0.20115,-0.82268 -1.05128,-1.97815 -2.50127,-2.30762 -5.66764,-3.66147 -8.56339,-3.66147 -1.39459,0 -2.68249,0.52642 -2.94192,1.20248 -0.43445,1.13215 -0.16704,2.17993 0.76526,2.9985 1.31267,1.15254 3.00282,1.91146 4.2915,1.92699 0.11156,0.001 0.3219,0.0951 0.46742,0.20842 0.14553,0.11328 0.56224,0.15704 0.92605,0.0973 0.3638,-0.0598 1.46975,-0.14819 2.45767,-0.19642 1.37558,-0.0671 1.91075,0.0132 2.28531,0.34327 0.56707,0.49967 1.18083,2.15076 0.7995,2.15076 -0.51153,0 -0.22981,0.49641 0.3445,0.60702 0.32742,0.0631 0.61801,0.13088 0.64576,0.1507 0.0277,0.0198 -0.12034,-0.29139 -0.3291,-0.69157 z m -4.79551,-1.66815 0.84082,-0.51269 -0.7087,-9.9e-4 c -0.86553,-0.001 -1.54025,0.62479 -1.54025,1.42902 0,0.88032 0.38277,1.11827 0.48209,0.29968 0.0548,-0.4514 0.38562,-0.8855 0.92604,-1.21502 z m 1.18755,1.0052 c 0.68754,0.0253 0.85764,-0.0635 0.79104,-0.41308 -0.11554,-0.60648 -1.1593,-0.71105 -1.94681,-0.19505 -0.74864,0.49052 -0.89268,1.10906 -0.18314,0.78642 0.25466,-0.1158 0.85717,-0.19603 1.33891,-0.17829 z m 2.4314,-0.17805 c 0,-0.7105 -0.70513,-1.34182 -1.49869,-1.34182 h -0.66715 l 0.88448,0.88856 c 1.04885,1.05368 1.28136,1.13593 1.28136,0.45326 z"
       id="path153" /><path
       style="fill:#000000;stroke-width:0.176124"
       d="m 53.009298,131.31915 c -3.565997,-0.77563 -5.74014,-3.94216 -4.420322,-6.43797 0.498245,-0.94219 1.58794,-1.57808 2.704305,-1.57808 0.420672,0 0.764854,-0.0595 0.764854,-0.13217 0,-0.0727 0.320597,-0.4829 0.712438,-0.91157 l 0.712442,-0.77939 -0.22229,-1.20192 -0.222285,-1.20192 h -0.728294 c -1.559633,0 -2.547736,-1.20833 -2.680561,-3.27799 -0.098,-1.52713 -0.292385,-1.63654 -1.216704,-0.6848 -0.735113,0.75692 -1.386762,0.80549 -2.153319,0.16047 -0.720955,-0.60664 -0.762752,-1.62879 -0.09395,-2.29758 0.37165,-0.37166 0.589103,-0.44023 1.276898,-0.40271 0.831468,0.0454 1.445399,-0.10931 1.445399,-0.36415 0,-0.075 -0.376463,-0.23115 -0.836585,-0.34699 -1.700636,-0.42814 -3.208621,-1.39744 -5.070179,-3.259 -2.586198,-2.5862 -3.547326,-4.63525 -3.761998,-8.02025 l -0.10611,-1.673178 -1.195107,0.06039 c -0.818393,0.04134 -1.284996,-0.01418 -1.480277,-0.176125 -0.380028,-0.315186 -4.370611,-6.565868 -6.750065,-10.573017 -0.590022,-0.993634 -0.601645,-1.001782 -1.402544,-0.983539 -1.364616,0.0311 -2.117104,-0.732458 -2.117104,-2.148207 0,-1.94025 2.738653,-2.64044 3.733381,-0.954509 0.193744,0.328371 0.444212,0.597037 0.556597,0.597037 0.868393,0 11.148136,0.542768 11.896989,0.628159 1.322894,0.150843 1.370343,0.181457 1.712208,1.104578 0.167239,0.45158 0.32229,0.846731 0.344552,0.878108 0.02227,0.03135 0.582807,-0.384171 1.24565,-0.92344 2.725363,-2.217278 7.854134,-4.153137 11.003109,-4.153137 0.374786,0 0.681424,-0.03769 0.681424,-0.0838 0,-0.04608 -0.158211,-0.343304 -0.351585,-0.660466 -0.193374,-0.317163 -0.351886,-0.70124 -0.35225,-0.853502 -9.99e-4,-0.385324 1.287337,-1.989108 4.032805,-5.020561 2.277201,-2.514409 3.594832,-3.985184 4.640608,-5.179964 1.121363,-1.281145 1.147359,-1.332612 0.907465,-1.796523 -0.994209,-1.922579 1.425474,-3.901978 3.074108,-2.514747 1.031268,0.867756 1.079061,2.284879 0.107433,3.185357 l -0.461081,0.427313 1.32241,4.002869 c 1.93652,5.861748 2.599637,8.095308 2.70421,9.108541 l 0.09319,0.902961 -1.352923,1.222655 c -0.744105,0.672458 -1.427297,1.249075 -1.5182,1.281361 -0.281367,0.09994 -0.18618,0.337422 0.378021,0.943136 1.341421,1.440122 2.493746,3.502923 3.071177,5.497755 0.468545,1.618694 0.295256,4.869371 -0.352694,6.616057 -0.268366,0.723448 -0.672782,1.608168 -0.898697,1.966038 -0.364437,0.5773 -0.380358,0.67591 -0.141183,0.87441 0.428376,0.35552 0.945517,1.49859 1.061802,2.34696 0.151262,1.10358 -0.423587,2.24873 -1.422763,2.83428 -0.410897,0.24081 -0.96056,0.43782 -1.221477,0.43782 -0.529688,0 -0.83034,0.47769 -0.448999,0.71337 0.153713,0.095 0.360667,0.0418 0.568105,-0.14587 0.499328,-0.45188 1.594095,-0.38287 2.14563,0.13527 0.637775,0.59916 0.57821,1.825 -0.113679,2.33967 -0.77674,0.57778 -2.117003,0.33419 -2.359164,-0.42877 -0.07595,-0.23931 -0.276828,-0.32406 -0.768179,-0.32406 -0.758892,0 -0.943055,0.1651 -1.822357,1.63368 -0.578439,0.96608 -0.600746,1.06351 -0.443602,1.93736 0.091,0.50607 0.468759,1.47491 0.839456,2.15299 0.851748,1.55801 1.234952,2.85954 1.234952,4.19448 0,1.44136 -0.293104,2.29338 -1.107059,3.21808 l -0.692812,0.78708 0.412369,0.60181 c 0.469154,0.68469 0.991083,0.97342 1.759617,0.97342 0.962331,0 1.768718,-0.67783 2.456193,-2.06463 0.370862,-0.74812 0.342664,-1.1056 -0.08722,-1.1056 -0.127723,0 -0.334192,-0.12286 -0.458814,-0.27302 -0.185706,-0.22376 -0.181652,-0.31663 0.02247,-0.5147 0.480112,-0.46587 3.645613,-2.03373 3.905072,-1.93417 0.277268,0.1064 1.187388,3.18267 1.187388,4.01344 0,0.42584 -0.06204,0.46969 -0.664445,0.46969 -0.580621,0 -0.706961,0.079 -1.001487,0.62586 -0.503977,0.93582 -1.999596,2.37342 -2.869571,2.75826 -0.881554,0.38995 -2.366968,0.4456 -3.349304,0.12548 -0.941628,-0.30685 -2.082521,-1.13312 -2.584386,-1.87167 l -0.432384,-0.63632 -2.07299,-0.0176 c -2.455058,-0.0208 -2.950232,0.15615 -4.63928,1.65781 -0.813526,0.72327 -1.245126,1.29044 -1.703606,2.23875 -0.48517,1.00351 -0.783631,1.3824 -1.422045,1.80527 -0.444396,0.29436 -0.986066,0.53519 -1.203708,0.53519 -0.217638,0 -0.501261,0.0333 -0.630267,0.074 -0.12901,0.0407 -0.717974,-0.0311 -1.30882,-0.15965 z m 2.583532,-0.71323 c 0.62433,-0.32285 1.505359,-1.48679 1.66067,-2.19393 0.131213,-0.59741 2.431556,-2.85868 3.357013,-3.3 0.922047,-0.4397 0.660396,-0.67325 -0.675209,-0.60269 -1.490527,0.0787 -2.243553,-0.17859 -3.012206,-1.0294 -1.048158,-1.16019 -1.407801,-3.0696 -0.968822,-5.14363 0.487541,-2.30345 1.899955,-3.65168 3.899061,-3.72187 0.617626,-0.0217 0.814679,-0.0912 0.748529,-0.26399 -0.04938,-0.129 -0.08979,-0.46534 -0.08979,-0.74742 0,-0.40078 -0.163574,-0.6315 -0.748523,-1.05578 l -0.748529,-0.54293 -1.274731,1.3286 c -1.097448,1.14384 -1.254058,1.38453 -1.12606,1.73066 0.378725,1.02419 -0.633257,2.20817 -1.748134,2.04526 -0.309569,-0.0452 -0.43549,0.0588 -0.568994,0.47028 -0.0943,0.2906 -0.279988,0.65349 -0.412654,0.80642 -0.13266,0.15293 -0.241202,0.51528 -0.241202,0.80522 0,0.60843 0.465944,2.07786 0.845003,2.66486 0.3257,0.50436 0.138861,0.71611 -0.358041,0.40579 -0.343762,-0.21468 -0.429943,-0.17877 -0.960669,0.40036 -0.681155,0.74326 -0.716422,0.91766 -0.21223,1.0495 0.210033,0.0549 0.334122,0.19747 0.286199,0.32876 -0.04653,0.12749 -0.193579,0.20448 -0.326773,0.1711 -1.643911,-0.41203 -2.011837,-0.42517 -2.692438,-0.0962 -1.242021,0.60032 -1.735178,1.7581 -1.353163,3.1768 0.219659,0.81576 1.372424,2.21612 2.194452,2.66578 1.636142,0.89501 3.526812,1.16582 4.527241,0.64847 z m 10.684796,-6.39846 c 2.227473,-1.13637 3.091497,-3.08157 2.502813,-5.63464 -0.09733,-0.42212 -0.57093,-1.5631 -1.052436,-2.53551 -0.48151,-0.9724 -0.875472,-1.91493 -0.875472,-2.09451 0,-0.20909 -0.126669,-0.32651 -0.352245,-0.32651 -0.193738,0 -0.35225,-0.0333 -0.35225,-0.0739 0,-0.0406 0.752932,-1.30895 1.673177,-2.81846 0.92025,-1.50951 1.673177,-2.81513 1.673177,-2.90136 0,-0.0862 -0.118881,-0.20242 -0.264188,-0.25818 -0.145301,-0.0558 -0.264182,-0.18381 -0.264182,-0.28457 0,-0.11769 0.335205,-0.14379 0.937599,-0.073 1.098217,0.12907 1.822262,-0.16409 2.396303,-0.97026 0.544461,-0.76462 0.631789,-1.4897 0.287877,-2.39023 -0.708833,-1.85604 -2.810685,-2.5934 -4.223863,-1.48179 -0.721579,0.56759 -1.040958,1.4056 -1.150204,3.01795 -0.005,0.0727 -0.164507,0.1321 -0.354636,0.1321 -0.501405,0 -1.654769,1.78789 -2.871753,4.45164 l -1.027992,2.25009 0.361476,0.45955 c 0.648099,0.82393 0.367891,2.03948 -0.560087,2.42966 -0.314597,0.13228 -0.632224,0.20329 -0.705833,0.15779 -0.242977,-0.15016 -0.139074,0.24285 0.121337,0.45897 0.140344,0.11648 0.341092,0.4721 0.446099,0.79028 0.173983,0.52717 0.268516,0.58768 1.065576,0.68209 0.988627,0.11709 2.460117,0.7098 2.460117,0.99094 0,0.26852 -0.322734,0.23164 -1.454725,-0.16622 -1.522474,-0.53511 -1.715503,-0.49382 -1.715503,0.36692 0,1.06848 -0.373034,0.78013 -0.631784,-0.48836 -0.259809,-1.27369 -0.632641,-2.04694 -1.167631,-2.42167 -0.437072,-0.30613 -1.811229,-0.36656 -2.487646,-0.10938 -1.4283,0.54304 -2.545688,2.93111 -2.350332,5.02311 0.127618,1.36665 0.685982,2.61377 1.396862,3.11997 0.711055,0.50631 2.002491,0.61385 3.056964,0.25455 1.078842,-0.36759 1.159929,-0.36065 1.093869,0.0936 -0.04259,0.29301 0.08463,0.43232 0.561328,0.6146 0.870854,0.33298 2.936026,0.18988 3.828188,-0.26527 z m 3.300752,-19.96976 c 0.455085,-1.44193 0.202251,-1.85442 -0.627855,-1.02431 -0.585379,0.58537 -0.865123,0.68045 -0.865123,0.29403 0,-0.33669 1.170743,-1.33918 1.563946,-1.33918 0.529054,0 0.935373,0.5923 0.801324,1.16813 -0.149729,0.64322 -0.555573,1.29761 -0.804758,1.29761 -0.119381,0 -0.145057,-0.15066 -0.06753,-0.39628 z m -16.484083,14.02286 c 0.55821,-0.39099 0.901204,-1.285 0.901204,-2.349 0,-0.67039 -0.06436,-0.88628 -0.264187,-0.88628 -0.456234,0 -0.289964,-0.38445 0.434431,-1.00451 0.769701,-0.65883 1.108481,-1.52621 0.9399,-2.40644 -0.163174,-0.85201 -0.646886,-1.40831 -1.621444,-1.86477 -0.786771,-0.3685 -0.971798,-0.3938 -1.569858,-0.21461 -1.210383,0.36264 -2.145815,1.52626 -2.145815,2.66926 0,0.5386 0.31537,1.38305 0.744984,1.9948 0.188411,0.26829 0.171092,0.35761 -0.109795,0.56627 -0.711839,0.5288 -4.99e-4,3.08819 0.990824,3.56613 0.585808,0.28235 1.234057,0.25533 1.699756,-0.0709 z m 2.669478,-2.14882 c 0.728962,-0.59028 0.0084,-1.81117 -0.898927,-1.52319 -0.275366,0.0874 -0.342814,0.24946 -0.31558,0.75828 0.05847,1.0925 0.481185,1.35872 1.214507,0.76491 z m -7.791708,-1.29781 c 0.363737,-0.36374 0.251576,-1.16316 -0.205191,-1.46244 -0.885872,-0.58045 -1.845218,0.35991 -1.267183,1.24211 0.308875,0.4714 1.102536,0.59017 1.472374,0.22033 z m 14.665076,-0.32321 c 0.534775,-0.28621 0.468859,-1.35194 -0.09964,-1.61097 -0.670145,-0.30534 -1.320925,0.0495 -1.320925,0.72019 0,0.88054 0.662937,1.29625 1.420565,0.89078 z m -12.394384,-4.58738 c 0.731399,-0.80958 1.570232,-1.11915 2.610007,-0.96322 0.804953,0.12071 1.940779,0.78294 2.354731,1.37291 0.1991,0.28376 0.369209,0.32664 0.936151,0.23598 1.011627,-0.16176 4.340252,-1.4159 6.569979,-2.47538 1.88414,-0.89528 1.965058,-0.95782 2.945642,-2.27692 0.554555,-0.746 1.097723,-1.68854 1.207043,-2.09452 0.271412,-1.00795 0.765683,-1.6513 1.592843,-2.07329 0.665094,-0.3393 0.691324,-0.38456 0.584695,-1.00872 -0.364836,-2.135603 -2.267987,-4.528397 -4.392459,-5.522555 -0.639423,-0.29922 -1.187083,-0.514925 -1.217028,-0.479339 -0.02996,0.0356 -0.102431,0.381721 -0.161083,0.769192 l -0.106639,0.704495 0.348315,-0.440312 0.348311,-0.440308 -0.02841,0.792558 c -0.01897,0.529403 0.104752,1.044308 0.372659,1.550765 0.220593,0.417018 0.409474,1.078397 0.419733,1.469743 0.01553,0.592653 -0.07701,0.797016 -0.553981,1.223181 -0.821853,0.73433 -1.354541,0.67189 -2.251165,-0.263874 -0.4087,-0.426543 -0.837984,-1.06307 -0.953964,-1.414502 -0.207403,-0.628424 -0.195036,-0.658488 0.749487,-1.822297 0.966583,-1.190992 1.360191,-1.806156 1.360191,-2.125835 0,-0.237008 -1.569661,-0.554546 -2.741257,-0.554546 H 59.27387 l -2.089106,2.007145 c -1.149011,1.103928 -2.299694,2.145126 -2.557076,2.313772 -0.418805,0.274407 -0.779672,0.293433 -3.434831,0.181088 l -2.966859,-0.125532 -0.632723,0.555544 c -1.357672,1.192047 -2.222086,3.361007 -2.225745,5.584777 -0.0025,1.59043 0.468929,2.91956 1.476598,4.16201 0.800555,0.98709 2.324161,2.11817 2.612882,1.93973 0.099,-0.0612 0.452594,-0.41297 0.785757,-0.78174 z m 7.835252,-1.30551 c -0.41849,-0.23925 -0.985516,-0.59495 -1.260058,-0.79044 -0.274537,-0.19549 -0.701789,-0.35543 -0.949451,-0.35543 -0.534376,0 -1.257612,-0.68584 -0.997519,-0.94594 0.113165,-0.11316 0.285695,-0.0709 0.499184,0.12232 0.791504,0.7163 2.171582,-0.11892 2.699687,-1.63385 0.364147,-1.04459 0.871029,-0.59709 1.641025,1.44878 0.518689,1.37813 0.559662,1.92956 0.172186,2.31704 -0.389619,0.38962 -0.923371,0.34158 -1.805054,-0.16248 z m 1.43553,-0.96828 c -0.294961,-1.26186 -1.114947,-2.64119 -1.114947,-1.8755 0,0.13169 -0.276549,0.50816 -0.614555,0.83659 -0.338011,0.32842 -0.615404,0.65039 -0.616437,0.71548 -9.99e-4,0.0651 0.48821,0.36324 1.087208,0.66257 1.17651,0.5879 1.457721,0.51214 1.258731,-0.33914 z m -11.194337,-1.01338 c -0.482973,-0.2995 -1.01641,-1.33954 -1.01641,-1.98169 0,-0.18955 -0.198137,-0.47446 -0.440307,-0.63313 -0.530726,-0.34774 -0.567771,-0.60024 -0.08806,-0.60024 0.510238,0 0.432345,-0.28502 -0.176124,-0.64445 -0.620462,-0.36652 -0.701015,-0.67988 -0.132092,-0.51386 0.217952,0.0636 1.166025,0.2409 2.106824,0.394 l 1.710551,0.27836 0.216449,0.63925 c 0.119046,0.35159 0.221112,1.10183 0.226814,1.66719 0.0088,0.87469 -0.05162,1.07817 -0.405425,1.36496 -0.510921,0.41413 -1.36182,0.42672 -2.002217,0.0296 z m 6.556917,-1.2777 c -0.454307,-0.4543 -0.444666,-0.56764 0.103714,-1.21935 0.545444,-0.64822 1.422638,-0.7411 1.910284,-0.20226 0.379973,0.41986 0.245186,0.92919 -0.374985,1.41702 -0.576048,0.45312 -1.188771,0.45483 -1.639013,0.004 z m 1.402584,-0.60872 c 0.228266,-0.27504 0.110648,-0.62414 -0.210279,-0.62414 -0.237712,0 -0.840061,0.52472 -0.840061,0.73179 0,0.24992 0.823646,0.16551 1.05034,-0.10765 z m 16.20979,5.54019 c 0.423917,-0.42392 0.440427,-0.67635 0.07808,-1.19368 -0.585709,-0.83622 -1.804824,-0.20436 -1.580072,0.81893 0.165241,0.75233 0.932886,0.94386 1.501994,0.37475 z M 52.908994,95.909053 c 0.03205,-0.02811 -0.0347,-0.224906 -0.148411,-0.437336 -0.325595,-0.608385 0.07406,-0.84717 0.452144,-0.270149 0.360847,0.550726 0.755558,0.352934 0.446838,-0.223913 -0.252346,-0.47152 -0.24299,-0.558859 0.05988,-0.558859 0.138771,0 0.302624,0.158512 0.364117,0.352245 0.11915,0.37542 0.378894,0.441566 0.76737,0.195416 0.145745,-0.09235 0.194492,-0.291681 0.124927,-0.510851 -0.06356,-0.200284 -0.02531,-0.414282 0.08644,-0.483338 0.110274,-0.06815 0.430522,-0.486617 0.711659,-0.92992 0.933385,-1.4718 0.5851,-3.320547 -0.809781,-4.298425 -1.774674,-1.244133 -4.748718,-0.819143 -6.302419,0.900624 -0.884194,0.978692 -1.208047,1.679063 -1.304632,2.821414 -0.07407,0.876051 -0.02322,1.077298 0.462934,1.832122 0.721978,1.120963 1.772287,1.615344 3.133344,1.47487 0.735777,-0.07594 0.970829,-0.04009 1.047543,0.159835 0.08466,0.220628 0.645978,0.205955 0.908048,-0.02371 z m -3.305395,-1.21258 c -0.122191,-0.147228 -0.286109,-0.55121 -0.364261,-0.897728 -0.117239,-0.519818 -0.07973,-0.68814 0.214387,-0.962152 0.291731,-0.271786 0.417651,-0.294218 0.693202,-0.123479 0.44841,0.277831 0.80675,1.462079 0.56105,1.854169 -0.245206,0.391301 -0.830066,0.459718 -1.104378,0.12919 z m 4.366488,-2.565598 c -1.020344,-1.020349 -0.210902,-2.201127 0.835203,-1.218361 0.67133,0.63068 0.530003,1.745043 -0.221312,1.745043 -0.04798,0 -0.324212,-0.237008 -0.613891,-0.526682 z"
       id="path1484"
       sodipodi:nodetypes="csssscccssssscsssscscssssssscsssscssssscsscssssssssssscssssssssscssssssssscsssccsssssccssscsssssscsscsssssssscssssssssssssscssssscsscsscsssssssssssssssssssssssscssssssssscccsssssssssssssssssssssssscccssssssssscssscscsssssssscssssssscssssssssscssssscsssccsssssssssscssssssssssssssssssssssssss" /></g></svg>
